<svg width="250" height="72" viewBox="0 0 250 72" fill="none" xmlns="http://www.w3.org/2000/svg">
<mask id="path-1-outside-1_10_15" maskUnits="userSpaceOnUse" x="1" y="15" width="124" height="53" fill="black">
<rect fill="white" x="1" y="15" width="124" height="53"/>
<path d="M16.752 26.216C18.736 26.216 20.528 26.648 22.128 27.512C23.728 28.344 24.976 29.608 25.872 31.304C26.8 33 27.264 35.064 27.264 37.496V53H22.944V38.12C22.944 35.496 22.288 33.496 20.976 32.12C19.664 30.712 17.872 30.008 15.6 30.008C13.296 30.008 11.456 30.728 10.08 32.168C8.736 33.608 8.064 35.704 8.064 38.456V53H3.696V17.48H8.064V30.44C8.928 29.096 10.112 28.056 11.616 27.32C13.152 26.584 14.864 26.216 16.752 26.216ZM57.7271 26.696V53H53.3591V49.112C52.5271 50.456 51.3591 51.512 49.8551 52.28C48.3831 53.016 46.7511 53.384 44.9591 53.384C42.9111 53.384 41.0711 52.968 39.4391 52.136C37.8071 51.272 36.5111 49.992 35.5511 48.296C34.6231 46.6 34.1591 44.536 34.1591 42.104V26.696H38.4791V41.528C38.4791 44.12 39.1351 46.12 40.4471 47.528C41.7591 48.904 43.5511 49.592 45.8231 49.592C48.1591 49.592 49.9991 48.872 51.3431 47.432C52.6871 45.992 53.3591 43.896 53.3591 41.144V26.696H57.7271ZM75.9503 26.264C78.2223 26.264 80.2063 26.76 81.9023 27.752C83.6303 28.744 84.9103 29.992 85.7423 31.496V26.696H90.1583V53.576C90.1583 55.976 89.6463 58.104 88.6223 59.96C87.5983 61.848 86.1263 63.32 84.2063 64.376C82.3183 65.432 80.1103 65.96 77.5823 65.96C74.1263 65.96 71.2463 65.144 68.9423 63.512C66.6383 61.88 65.2783 59.656 64.8623 56.84H69.1823C69.6623 58.44 70.6543 59.72 72.1583 60.68C73.6623 61.672 75.4703 62.168 77.5823 62.168C79.9823 62.168 81.9343 61.416 83.4383 59.912C84.9743 58.408 85.7423 56.296 85.7423 53.576V48.056C84.8783 49.592 83.5983 50.872 81.9023 51.896C80.2063 52.92 78.2223 53.432 75.9503 53.432C73.6143 53.432 71.4863 52.856 69.5663 51.704C67.6783 50.552 66.1903 48.936 65.1023 46.856C64.0143 44.776 63.4703 42.408 63.4703 39.752C63.4703 37.064 64.0143 34.712 65.1023 32.696C66.1903 30.648 67.6783 29.064 69.5663 27.944C71.4863 26.824 73.6143 26.264 75.9503 26.264ZM85.7423 39.8C85.7423 37.816 85.3423 36.088 84.5423 34.616C83.7423 33.144 82.6543 32.024 81.2783 31.256C79.9343 30.456 78.4463 30.056 76.8143 30.056C75.1823 30.056 73.6943 30.44 72.3503 31.208C71.0063 31.976 69.9343 33.096 69.1343 34.568C68.3343 36.04 67.9343 37.768 67.9343 39.752C67.9343 41.768 68.3343 43.528 69.1343 45.032C69.9343 46.504 71.0063 47.64 72.3503 48.44C73.6943 49.208 75.1823 49.592 76.8143 49.592C78.4463 49.592 79.9343 49.208 81.2783 48.44C82.6543 47.64 83.7423 46.504 84.5423 45.032C85.3423 43.528 85.7423 41.784 85.7423 39.8ZM109.012 53.432C106.548 53.432 104.308 52.872 102.292 51.752C100.308 50.632 98.7398 49.048 97.5878 47C96.4678 44.92 95.9078 42.52 95.9078 39.8C95.9078 37.112 96.4838 34.744 97.6358 32.696C98.8198 30.616 100.42 29.032 102.436 27.944C104.452 26.824 106.708 26.264 109.204 26.264C111.7 26.264 113.956 26.824 115.972 27.944C117.988 29.032 119.572 30.6 120.724 32.648C121.908 34.696 122.5 37.08 122.5 39.8C122.5 42.52 121.892 44.92 120.676 47C119.492 49.048 117.876 50.632 115.828 51.752C113.78 52.872 111.508 53.432 109.012 53.432ZM109.012 49.592C110.58 49.592 112.052 49.224 113.428 48.488C114.804 47.752 115.908 46.648 116.74 45.176C117.604 43.704 118.036 41.912 118.036 39.8C118.036 37.688 117.62 35.896 116.788 34.424C115.956 32.952 114.868 31.864 113.524 31.16C112.18 30.424 110.724 30.056 109.156 30.056C107.556 30.056 106.084 30.424 104.74 31.16C103.428 31.864 102.372 32.952 101.572 34.424C100.772 35.896 100.372 37.688 100.372 39.8C100.372 41.944 100.756 43.752 101.524 45.224C102.324 46.696 103.38 47.8 104.692 48.536C106.004 49.24 107.444 49.592 109.012 49.592Z"/>
</mask>
<path d="M22.128 27.512L21.1777 29.2718L21.1914 29.2792L21.2053 29.2864L22.128 27.512ZM25.872 31.304L24.1036 32.2382L24.1105 32.2512L24.1175 32.264L25.872 31.304ZM27.264 53V55H29.264V53H27.264ZM22.944 53H20.944V55H22.944V53ZM20.976 32.12L19.5128 33.4834L19.5206 33.4918L19.5285 33.5001L20.976 32.12ZM10.08 32.168L8.63402 30.7863L8.6259 30.7948L8.61789 30.8034L10.08 32.168ZM8.064 53V55H10.064V53H8.064ZM3.696 53H1.696V55H3.696V53ZM3.696 17.48V15.48H1.696V17.48H3.696ZM8.064 17.48H10.064V15.48H8.064V17.48ZM8.064 30.44H6.064V37.2496L9.74636 31.5215L8.064 30.44ZM11.616 27.32L10.7518 25.5164L10.7443 25.5199L10.7369 25.5236L11.616 27.32ZM16.752 28.216C18.4352 28.216 19.8957 28.5795 21.1777 29.2718L23.0783 25.7522C21.1603 24.7165 19.0368 24.216 16.752 24.216V28.216ZM21.2053 29.2864C22.4211 29.9186 23.3848 30.8776 24.1036 32.2382L27.6404 30.3698C26.5672 28.3384 25.0349 26.7694 23.0507 25.7376L21.2053 29.2864ZM24.1175 32.264C24.848 33.5992 25.264 35.3146 25.264 37.496H29.264C29.264 34.8134 28.752 32.4008 27.6265 30.344L24.1175 32.264ZM25.264 37.496V53H29.264V37.496H25.264ZM27.264 51H22.944V55H27.264V51ZM24.944 53V38.12H20.944V53H24.944ZM24.944 38.12C24.944 35.18 24.2065 32.6099 22.4235 30.7398L19.5285 33.5001C20.3695 34.3821 20.944 35.812 20.944 38.12H24.944ZM22.4392 30.7565C20.6805 28.8691 18.3179 28.008 15.6 28.008V32.008C17.4261 32.008 18.6475 32.5549 19.5128 33.4834L22.4392 30.7565ZM15.6 28.008C12.8432 28.008 10.4474 28.8886 8.63402 30.7863L11.526 33.5497C12.4646 32.5674 13.7488 32.008 15.6 32.008V28.008ZM8.61789 30.8034C6.81134 32.7389 6.064 35.3996 6.064 38.456H10.064C10.064 36.0084 10.6607 34.4771 11.5421 33.5326L8.61789 30.8034ZM6.064 38.456V53H10.064V38.456H6.064ZM8.064 51H3.696V55H8.064V51ZM5.696 53V17.48H1.696V53H5.696ZM3.696 19.48H8.064V15.48H3.696V19.48ZM6.064 17.48V30.44H10.064V17.48H6.064ZM9.74636 31.5215C10.4032 30.4997 11.3026 29.7 12.4951 29.1164L10.7369 25.5236C8.92135 26.412 7.45278 27.6923 6.38164 29.3585L9.74636 31.5215ZM12.4802 29.1236C13.7184 28.5304 15.1304 28.216 16.752 28.216V24.216C14.5976 24.216 12.5856 24.6376 10.7518 25.5164L12.4802 29.1236ZM57.7271 26.696H59.7271V24.696H57.7271V26.696ZM57.7271 53V55H59.7271V53H57.7271ZM53.3591 53H51.3591V55H53.3591V53ZM53.3591 49.112H55.3591V42.0815L51.6586 48.0593L53.3591 49.112ZM49.8551 52.28L50.7496 54.0689L50.7571 54.0651L50.7647 54.0612L49.8551 52.28ZM39.4391 52.136L38.5033 53.9036L38.517 53.9108L38.5308 53.9178L39.4391 52.136ZM35.5511 48.296L33.7966 49.256L33.8035 49.2687L33.8106 49.2812L35.5511 48.296ZM34.1591 26.696V24.696H32.1591V26.696H34.1591ZM38.4791 26.696H40.4791V24.696H38.4791V26.696ZM40.4471 47.528L38.9839 48.8915L38.9917 48.8998L38.9996 48.9081L40.4471 47.528ZM51.3431 47.432L49.881 46.0674L51.3431 47.432ZM53.3591 26.696V24.696H51.3591V26.696H53.3591ZM55.7271 26.696V53H59.7271V26.696H55.7271ZM57.7271 51H53.3591V55H57.7271V51ZM55.3591 53V49.112H51.3591V53H55.3591ZM51.6586 48.0593C51.032 49.0714 50.1475 49.8851 48.9456 50.4988L50.7647 54.0612C52.5708 53.1389 54.0222 51.8406 55.0597 50.1647L51.6586 48.0593ZM48.9607 50.4911C47.7905 51.0762 46.4687 51.384 44.9591 51.384V55.384C47.0335 55.384 48.9758 54.9558 50.7496 54.0689L48.9607 50.4911ZM44.9591 51.384C43.1892 51.384 41.6664 51.0266 40.3475 50.3542L38.5308 53.9178C40.4759 54.9094 42.6331 55.384 44.9591 55.384V51.384ZM40.3749 50.3684C39.0994 49.6932 38.0745 48.6938 37.2916 47.3108L33.8106 49.2812C34.9478 51.2902 36.5148 52.8508 38.5033 53.9036L40.3749 50.3684ZM37.3056 47.336C36.5751 46.0008 36.1591 44.2854 36.1591 42.104H32.1591C32.1591 44.7866 32.6712 47.1992 33.7966 49.256L37.3056 47.336ZM36.1591 42.104V26.696H32.1591V42.104H36.1591ZM34.1591 28.696H38.4791V24.696H34.1591V28.696ZM36.4791 26.696V41.528H40.4791V26.696H36.4791ZM36.4791 41.528C36.4791 44.4473 37.2218 47.0004 38.9839 48.8915L41.9103 46.1645C41.0484 45.2396 40.4791 43.7927 40.4791 41.528H36.4791ZM38.9996 48.9081C40.7618 50.7563 43.1194 51.592 45.8231 51.592V47.592C43.9829 47.592 42.7564 47.0517 41.8946 46.1479L38.9996 48.9081ZM45.8231 51.592C48.6015 51.592 51.0128 50.7171 52.8052 48.7966L49.881 46.0674C48.9854 47.0269 47.7167 47.592 45.8231 47.592V51.592ZM52.8052 48.7966C54.6118 46.861 55.3591 44.2004 55.3591 41.144H51.3591C51.3591 43.5916 50.7625 45.1229 49.881 46.0674L52.8052 48.7966ZM55.3591 41.144V26.696H51.3591V41.144H55.3591ZM53.3591 28.696H57.7271V24.696H53.3591V28.696ZM81.9023 27.752L80.8925 29.4784L80.8995 29.4825L80.9065 29.4865L81.9023 27.752ZM85.7422 31.496L83.9922 32.4641L87.7422 31.496H85.7422ZM85.7422 26.696V24.696H83.7422V26.696H85.7422ZM90.1582 26.696H92.1582V24.696H90.1582V26.696ZM88.6223 59.96L86.8711 58.9938L86.8676 59.0001L86.8642 59.0065L88.6223 59.96ZM84.2063 64.376L83.2424 62.6236L83.2362 62.627L83.2299 62.6305L84.2063 64.376ZM68.9423 63.512L67.7862 65.1441L68.9423 63.512ZM64.8623 56.84V54.84H62.5451L62.8837 57.1323L64.8623 56.84ZM69.1823 56.84L71.0979 56.2653L70.6703 54.84H69.1823V56.84ZM72.1582 60.68L73.2594 59.0105L73.2469 59.0022L73.2343 58.9942L72.1582 60.68ZM83.4382 59.912L82.039 58.483L82.0315 58.4903L82.024 58.4978L83.4382 59.912ZM85.7422 48.056H87.7422V40.421L83.9991 47.0755L85.7422 48.056ZM81.9023 51.896L80.8685 50.1839L81.9023 51.896ZM69.5663 51.704L68.5245 53.4113L68.5309 53.4152L68.5373 53.419L69.5663 51.704ZM65.1022 46.856L66.8744 45.929L65.1022 46.856ZM65.1022 32.696L66.8623 33.6459L66.8685 33.6343L65.1022 32.696ZM69.5663 27.944L68.5585 26.2164L68.5522 26.2201L68.5458 26.2239L69.5663 27.944ZM81.2783 31.256L80.2553 32.9746L80.2792 32.9888L80.3035 33.0024L81.2783 31.256ZM72.3503 31.208L71.358 29.4715L72.3503 31.208ZM69.1342 34.568L70.8915 35.523L69.1342 34.568ZM69.1342 45.032L67.3685 45.9712L67.3727 45.9791L67.377 45.987L69.1342 45.032ZM72.3503 48.44L71.3273 50.1586L71.3426 50.1677L71.358 50.1765L72.3503 48.44ZM81.2783 48.44L82.2705 50.1765L82.277 50.1728L82.2835 50.169L81.2783 48.44ZM84.5423 45.032L86.2995 45.987L86.3038 45.9791L86.308 45.9712L84.5423 45.032ZM75.9502 28.264C77.9236 28.264 79.548 28.692 80.8925 29.4784L82.912 26.0256C80.8645 24.828 78.5209 24.264 75.9502 24.264V28.264ZM80.9065 29.4865C82.3691 30.3261 83.3635 31.3277 83.9922 32.4641L87.4923 30.5279C86.457 28.6563 84.8914 27.1619 82.898 26.0175L80.9065 29.4865ZM87.7422 31.496V26.696H83.7422V31.496H87.7422ZM85.7422 28.696H90.1582V24.696H85.7422V28.696ZM88.1582 26.696V53.576H92.1582V26.696H88.1582ZM88.1582 53.576C88.1582 55.6834 87.7113 57.471 86.8711 58.9938L90.3734 60.9262C91.5812 58.737 92.1582 56.2686 92.1582 53.576H88.1582ZM86.8642 59.0065C86.0268 60.5504 84.8338 61.7483 83.2424 62.6236L85.1701 66.1284C87.4187 64.8917 89.1697 63.1456 90.3803 60.9135L86.8642 59.0065ZM83.2299 62.6305C81.6871 63.4934 79.8264 63.96 77.5823 63.96V67.96C80.3941 67.96 82.9494 67.3706 85.1826 66.1215L83.2299 62.6305ZM77.5823 63.96C74.4462 63.96 71.9948 63.2233 70.0983 61.88L67.7862 65.1441C70.4977 67.0647 73.8063 67.96 77.5823 67.96V63.96ZM70.0983 61.88C68.2439 60.5665 67.1777 58.8286 66.8408 56.5477L62.8837 57.1323C63.3788 60.4834 65.0326 63.1935 67.7862 65.1441L70.0983 61.88ZM64.8623 58.84H69.1823V54.84H64.8623V58.84ZM67.2666 57.4147C67.8941 59.5065 69.2041 61.167 71.0822 62.3658L73.2343 58.9942C72.1044 58.273 71.4304 57.3735 71.0979 56.2653L67.2666 57.4147ZM71.0571 62.3495C72.941 63.5921 75.1476 64.168 77.5823 64.168V60.168C75.7929 60.168 74.3835 59.7519 73.2594 59.0105L71.0571 62.3495ZM77.5823 64.168C80.4384 64.168 82.924 63.2547 84.8525 61.3262L82.024 58.4978C80.9445 59.5773 79.5261 60.168 77.5823 60.168V64.168ZM84.8375 61.341C86.8534 59.3671 87.7422 56.6832 87.7422 53.576H83.7422C83.7422 55.9088 83.0951 57.4489 82.039 58.483L84.8375 61.341ZM87.7422 53.576V48.056H83.7422V53.576H87.7422ZM83.9991 47.0755C83.3246 48.2745 82.3063 49.3158 80.8685 50.1839L82.936 53.6081C84.8903 52.4282 86.4319 50.9095 87.4854 49.0365L83.9991 47.0755ZM80.8685 50.1839C79.528 50.9932 77.9124 51.432 75.9502 51.432V55.432C78.5321 55.432 80.8845 54.8468 82.936 53.6081L80.8685 50.1839ZM75.9502 51.432C73.9603 51.432 72.1906 50.9463 70.5952 49.989L68.5373 53.419C70.7819 54.7657 73.2682 55.432 75.9502 55.432V51.432ZM70.608 49.9967C69.049 49.0454 67.805 47.708 66.8744 45.929L63.3301 47.783C64.5755 50.164 66.3076 52.0586 68.5245 53.4113L70.608 49.9967ZM66.8744 45.929C65.9548 44.1708 65.4703 42.128 65.4703 39.752H61.4702C61.4702 42.688 62.0737 45.3812 63.3301 47.783L66.8744 45.929ZM65.4703 39.752C65.4703 37.338 65.9571 35.3232 66.8623 33.6459L63.3422 31.7461C62.0714 34.1008 61.4702 36.79 61.4702 39.752H65.4703ZM66.8685 33.6343C67.7944 31.8913 69.0324 30.5861 70.5867 29.6641L68.5458 26.2239C66.3241 27.5419 64.5861 29.4047 63.336 31.7577L66.8685 33.6343ZM70.574 29.6716C72.1723 28.7392 73.9496 28.264 75.9502 28.264V24.264C73.2789 24.264 70.8002 24.9088 68.5585 26.2164L70.574 29.6716ZM87.7422 39.8C87.7422 37.5439 87.2858 35.4757 86.2995 33.661L82.785 35.571C83.3987 36.7003 83.7422 38.0881 83.7422 39.8H87.7422ZM86.2995 33.661C85.3307 31.8784 83.9806 30.4739 82.253 29.5096L80.3035 33.0024C81.3279 33.5741 82.1538 34.4096 82.785 35.571L86.2995 33.661ZM82.3012 29.5374C80.634 28.545 78.79 28.056 76.8142 28.056V32.056C78.1025 32.056 79.2345 32.367 80.2553 32.9746L82.3012 29.5374ZM76.8142 28.056C74.8538 28.056 73.0208 28.5213 71.358 29.4715L73.3425 32.9445C74.3677 32.3587 75.5107 32.056 76.8142 32.056V28.056ZM71.358 29.4715C69.6648 30.439 68.3393 31.8424 67.377 33.613L70.8915 35.523C71.5292 34.3496 72.3477 33.513 73.3425 32.9445L71.358 29.4715ZM67.377 33.613C66.3907 35.4277 65.9342 37.4959 65.9342 39.752H69.9342C69.9342 38.0401 70.2778 36.6523 70.8915 35.523L67.377 33.613ZM65.9342 39.752C65.9342 42.0355 66.3888 44.1294 67.3685 45.9712L70.9 44.0928C70.2797 42.9266 69.9342 41.5005 69.9342 39.752H65.9342ZM67.377 45.987C68.336 47.7516 69.6523 49.1616 71.3273 50.1586L73.3732 46.7214C72.3602 46.1184 71.5325 45.2564 70.8915 44.077L67.377 45.987ZM71.358 50.1765C73.0208 51.1267 74.8538 51.592 76.8142 51.592V47.592C75.5107 47.592 74.3677 47.2893 73.3425 46.7035L71.358 50.1765ZM76.8142 51.592C78.7747 51.592 80.6077 51.1267 82.2705 50.1765L80.286 46.7035C79.2608 47.2893 78.1178 47.592 76.8142 47.592V51.592ZM82.2835 50.169C83.9933 49.1749 85.3341 47.7634 86.2995 45.987L82.785 44.077C82.1504 45.2446 81.3152 46.1051 80.273 46.711L82.2835 50.169ZM86.308 45.9712C87.2854 44.1338 87.7422 42.0574 87.7422 39.8H83.7422C83.7422 41.5106 83.3991 42.9222 82.7765 44.0928L86.308 45.9712ZM102.292 51.752L101.309 53.4937L101.32 53.5003L102.292 51.752ZM97.5878 47L95.8268 47.9482L95.8356 47.9644L95.8446 47.9805L97.5878 47ZM97.6357 32.696L95.8976 31.7066L95.8926 31.7155L97.6357 32.696ZM102.436 27.944L103.386 29.704L103.396 29.6982L103.407 29.6923L102.436 27.944ZM115.972 27.944L115 29.6923L115.011 29.6982L115.022 29.704L115.972 27.944ZM120.724 32.648L118.981 33.6285L118.986 33.6388L118.992 33.649L120.724 32.648ZM120.676 47L118.949 45.9906L118.944 45.999L120.676 47ZM115.828 51.752L116.787 53.5067L115.828 51.752ZM116.74 45.176L115.015 44.1636L115.007 44.1777L114.999 44.1919L116.74 45.176ZM113.524 31.16L112.563 32.9142L112.579 32.9231L112.596 32.9317L113.524 31.16ZM104.74 31.16L105.685 32.9223L105.693 32.9183L105.7 32.9142L104.74 31.16ZM101.572 34.424L103.329 35.379L101.572 34.424ZM101.524 45.224L99.7506 46.1491L99.7584 46.1641L99.7665 46.179L101.524 45.224ZM104.692 48.536L103.713 50.2803L103.73 50.2895L103.746 50.2983L104.692 48.536ZM109.012 51.432C106.864 51.432 104.962 50.9473 103.263 50.0037L101.32 53.5003C103.654 54.7967 106.232 55.432 109.012 55.432V51.432ZM103.275 50.0104C101.619 49.0757 100.31 47.7596 99.3309 46.0195L95.8446 47.9805C97.1698 50.3364 98.9962 52.1883 101.309 53.4936L103.275 50.0104ZM99.3487 46.0518C98.4079 44.3047 97.9078 42.2395 97.9078 39.8H93.9078C93.9078 42.8005 94.5276 45.5353 95.8268 47.9482L99.3487 46.0518ZM97.9078 39.8C97.9078 37.4054 98.4183 35.3843 99.3789 33.6765L95.8926 31.7155C94.5492 34.1037 93.9078 36.8186 93.9078 39.8H97.9078ZM99.3739 33.6854C100.381 31.9158 101.715 30.6059 103.386 29.704L101.486 26.184C99.125 27.4581 97.2583 29.3162 95.8976 31.7066L99.3739 33.6854ZM103.407 29.6923C105.102 28.7508 107.019 28.264 109.204 28.264V24.264C106.397 24.264 103.802 24.8972 101.464 26.1957L103.407 29.6923ZM109.204 28.264C111.389 28.264 113.306 28.7508 115 29.6923L116.943 26.1957C114.606 24.8972 112.011 24.264 109.204 24.264V28.264ZM115.022 29.704C116.696 30.6076 118.009 31.9012 118.981 33.6285L122.467 31.6675C121.135 29.2988 119.279 27.4564 116.922 26.184L115.022 29.704ZM118.992 33.649C119.975 35.3496 120.5 37.3781 120.5 39.8H124.5C124.5 36.7819 123.84 34.0424 122.455 31.647L118.992 33.649ZM120.5 39.8C120.5 42.2119 119.964 44.2548 118.949 45.9906L122.402 48.0094C123.82 45.5852 124.5 42.8281 124.5 39.8H120.5ZM118.944 45.999C117.941 47.7343 116.59 49.0555 114.868 49.9973L116.787 53.5067C119.161 52.2085 121.042 50.3617 122.407 48.001L118.944 45.999ZM114.868 49.9973C113.135 50.9452 111.196 51.432 109.012 51.432V55.432C111.819 55.432 114.425 54.7988 116.787 53.5067L114.868 49.9973ZM109.012 51.592C110.907 51.592 112.703 51.1436 114.371 50.2516L112.484 46.7244C111.4 47.3044 110.252 47.592 109.012 47.592V51.592ZM114.371 50.2516C116.109 49.3217 117.478 47.9336 118.481 46.1601L114.999 44.1919C114.337 45.3624 113.498 46.1823 112.484 46.7244L114.371 50.2516ZM118.465 46.1884C119.547 44.3444 120.036 42.1841 120.036 39.8H116.036C116.036 41.6399 115.661 43.0636 115.015 44.1636L118.465 46.1884ZM120.036 39.8C120.036 37.4279 119.568 35.2781 118.529 33.4399L115.047 35.4081C115.672 36.5139 116.036 37.9481 116.036 39.8H120.036ZM118.529 33.4399C117.53 31.6722 116.175 30.2911 114.452 29.3883L112.596 32.9317C113.56 33.4369 114.382 34.2318 115.047 35.4081L118.529 33.4399ZM114.484 29.4058C112.839 28.5047 111.051 28.056 109.156 28.056V32.056C110.396 32.056 111.521 32.3433 112.563 32.9142L114.484 29.4058ZM109.156 28.056C107.235 28.056 105.431 28.5013 103.779 29.4058L105.7 32.9142C106.737 32.3467 107.876 32.056 109.156 32.056V28.056ZM103.794 29.3977C102.097 30.3084 100.777 31.6988 99.8145 33.469L103.329 35.379C103.967 34.2052 104.759 33.4196 105.685 32.9223L103.794 29.3977ZM99.8145 33.469C98.8189 35.3008 98.3717 37.4396 98.3717 39.8H102.372C102.372 37.9364 102.725 36.4912 103.329 35.379L99.8145 33.469ZM98.3717 39.8C98.3717 42.1752 98.7965 44.3205 99.7506 46.1491L103.297 44.2989C102.715 43.1835 102.372 41.7128 102.372 39.8H98.3717ZM99.7665 46.179C100.725 47.9434 102.036 49.3394 103.713 50.2803L105.67 46.7917C104.724 46.2607 103.922 45.4486 103.281 44.269L99.7665 46.179ZM103.746 50.2983C105.364 51.1667 107.132 51.592 109.012 51.592V47.592C107.756 47.592 106.643 47.3133 105.637 46.7737L103.746 50.2983Z" fill="white" mask="url(#path-1-outside-1_10_15)"/>
<mask id="path-3-outside-2_10_15" maskUnits="userSpaceOnUse" x="125" y="15" width="122" height="52" fill="black">
<rect fill="white" x="125" y="15" width="122" height="52"/>
<path d="M131.064 31.544C131.928 30.04 133.208 28.792 134.904 27.8C136.632 26.776 138.632 26.264 140.904 26.264C143.24 26.264 145.352 26.824 147.24 27.944C149.16 29.064 150.664 30.648 151.752 32.696C152.84 34.712 153.384 37.064 153.384 39.752C153.384 42.408 152.84 44.776 151.752 46.856C150.664 48.936 149.16 50.552 147.24 51.704C145.352 52.856 143.24 53.432 140.904 53.432C138.664 53.432 136.68 52.936 134.952 51.944C133.256 50.92 131.96 49.656 131.064 48.152V65.48H126.696V26.696H131.064V31.544ZM148.92 39.752C148.92 37.768 148.52 36.04 147.72 34.568C146.92 33.096 145.832 31.976 144.456 31.208C143.112 30.44 141.624 30.056 139.992 30.056C138.392 30.056 136.904 30.456 135.528 31.256C134.184 32.024 133.096 33.16 132.264 34.664C131.464 36.136 131.064 37.848 131.064 39.8C131.064 41.784 131.464 43.528 132.264 45.032C133.096 46.504 134.184 47.64 135.528 48.44C136.904 49.208 138.392 49.592 139.992 49.592C141.624 49.592 143.112 49.208 144.456 48.44C145.832 47.64 146.92 46.504 147.72 45.032C148.52 43.528 148.92 41.768 148.92 39.752ZM158.077 22.424C157.245 22.424 156.541 22.136 155.965 21.56C155.389 20.984 155.101 20.28 155.101 19.448C155.101 18.616 155.389 17.912 155.965 17.336C156.541 16.76 157.245 16.472 158.077 16.472C158.877 16.472 159.549 16.76 160.094 17.336C160.67 17.912 160.958 18.616 160.958 19.448C160.958 20.28 160.67 20.984 160.094 21.56C159.549 22.136 158.877 22.424 158.077 22.424ZM160.19 26.696V53H155.822V26.696H160.19ZM175.794 53.432C173.33 53.432 171.09 52.872 169.074 51.752C167.09 50.632 165.522 49.048 164.37 47C163.25 44.92 162.69 42.52 162.69 39.8C162.69 37.112 163.266 34.744 164.418 32.696C165.602 30.616 167.202 29.032 169.218 27.944C171.234 26.824 173.49 26.264 175.986 26.264C178.482 26.264 180.738 26.824 182.754 27.944C184.77 29.032 186.354 30.6 187.506 32.648C188.69 34.696 189.282 37.08 189.282 39.8C189.282 42.52 188.674 44.92 187.458 47C186.274 49.048 184.658 50.632 182.61 51.752C180.562 52.872 178.29 53.432 175.794 53.432ZM175.794 49.592C177.362 49.592 178.834 49.224 180.21 48.488C181.586 47.752 182.69 46.648 183.522 45.176C184.386 43.704 184.818 41.912 184.818 39.8C184.818 37.688 184.402 35.896 183.57 34.424C182.738 32.952 181.65 31.864 180.306 31.16C178.962 30.424 177.506 30.056 175.938 30.056C174.338 30.056 172.866 30.424 171.522 31.16C170.21 31.864 169.154 32.952 168.354 34.424C167.554 35.896 167.154 37.688 167.154 39.8C167.154 41.944 167.538 43.752 168.306 45.224C169.106 46.696 170.162 47.8 171.474 48.536C172.786 49.24 174.226 49.592 175.794 49.592ZM190.081 39.752C190.081 37.064 190.625 34.712 191.713 32.696C192.801 30.648 194.289 29.064 196.177 27.944C198.097 26.824 200.241 26.264 202.609 26.264C204.657 26.264 206.561 26.744 208.321 27.704C210.081 28.632 211.425 29.864 212.353 31.4V17.48H216.769V53H212.353V48.056C211.489 49.624 210.209 50.92 208.513 51.944C206.817 52.936 204.833 53.432 202.561 53.432C200.225 53.432 198.097 52.856 196.177 51.704C194.289 50.552 192.801 48.936 191.713 46.856C190.625 44.776 190.081 42.408 190.081 39.752ZM212.353 39.8C212.353 37.816 211.953 36.088 211.153 34.616C210.353 33.144 209.265 32.024 207.889 31.256C206.545 30.456 205.057 30.056 203.425 30.056C201.793 30.056 200.305 30.44 198.961 31.208C197.617 31.976 196.545 33.096 195.745 34.568C194.945 36.04 194.545 37.768 194.545 39.752C194.545 41.768 194.945 43.528 195.745 45.032C196.545 46.504 197.617 47.64 198.961 48.44C200.305 49.208 201.793 49.592 203.425 49.592C205.057 49.592 206.545 49.208 207.889 48.44C209.265 47.64 210.353 46.504 211.153 45.032C211.953 43.528 212.353 41.784 212.353 39.8ZM219.207 39.752C219.207 37.064 219.751 34.712 220.839 32.696C221.927 30.648 223.415 29.064 225.303 27.944C227.223 26.824 229.351 26.264 231.687 26.264C233.991 26.264 235.991 26.76 237.687 27.752C239.383 28.744 240.647 29.992 241.479 31.496V26.696H245.895V53H241.479V48.104C240.615 49.64 239.319 50.92 237.591 51.944C235.895 52.936 233.911 53.432 231.639 53.432C229.303 53.432 227.191 52.856 225.303 51.704C223.415 50.552 221.927 48.936 220.839 46.856C219.751 44.776 219.207 42.408 219.207 39.752ZM241.479 39.8C241.479 37.816 241.079 36.088 240.279 34.616C239.479 33.144 238.391 32.024 237.015 31.256C235.671 30.456 234.183 30.056 232.551 30.056C230.919 30.056 229.431 30.44 228.087 31.208C226.743 31.976 225.671 33.096 224.871 34.568C224.071 36.04 223.671 37.768 223.671 39.752C223.671 41.768 224.071 43.528 224.871 45.032C225.671 46.504 226.743 47.64 228.087 48.44C229.431 49.208 230.919 49.592 232.551 49.592C234.183 49.592 235.671 49.208 237.015 48.44C238.391 47.64 239.479 46.504 240.279 45.032C241.079 43.528 241.479 41.784 241.479 39.8Z"/>
</mask>
<path d="M131.064 31.544C131.928 30.04 133.208 28.792 134.904 27.8C136.632 26.776 138.632 26.264 140.904 26.264C143.24 26.264 145.352 26.824 147.24 27.944C149.16 29.064 150.664 30.648 151.752 32.696C152.84 34.712 153.384 37.064 153.384 39.752C153.384 42.408 152.84 44.776 151.752 46.856C150.664 48.936 149.16 50.552 147.24 51.704C145.352 52.856 143.24 53.432 140.904 53.432C138.664 53.432 136.68 52.936 134.952 51.944C133.256 50.92 131.96 49.656 131.064 48.152V65.48H126.696V26.696H131.064V31.544ZM148.92 39.752C148.92 37.768 148.52 36.04 147.72 34.568C146.92 33.096 145.832 31.976 144.456 31.208C143.112 30.44 141.624 30.056 139.992 30.056C138.392 30.056 136.904 30.456 135.528 31.256C134.184 32.024 133.096 33.16 132.264 34.664C131.464 36.136 131.064 37.848 131.064 39.8C131.064 41.784 131.464 43.528 132.264 45.032C133.096 46.504 134.184 47.64 135.528 48.44C136.904 49.208 138.392 49.592 139.992 49.592C141.624 49.592 143.112 49.208 144.456 48.44C145.832 47.64 146.92 46.504 147.72 45.032C148.52 43.528 148.92 41.768 148.92 39.752ZM158.077 22.424C157.245 22.424 156.541 22.136 155.965 21.56C155.389 20.984 155.101 20.28 155.101 19.448C155.101 18.616 155.389 17.912 155.965 17.336C156.541 16.76 157.245 16.472 158.077 16.472C158.877 16.472 159.549 16.76 160.094 17.336C160.67 17.912 160.958 18.616 160.958 19.448C160.958 20.28 160.67 20.984 160.094 21.56C159.549 22.136 158.877 22.424 158.077 22.424ZM160.19 26.696V53H155.822V26.696H160.19ZM175.794 53.432C173.33 53.432 171.09 52.872 169.074 51.752C167.09 50.632 165.522 49.048 164.37 47C163.25 44.92 162.69 42.52 162.69 39.8C162.69 37.112 163.266 34.744 164.418 32.696C165.602 30.616 167.202 29.032 169.218 27.944C171.234 26.824 173.49 26.264 175.986 26.264C178.482 26.264 180.738 26.824 182.754 27.944C184.77 29.032 186.354 30.6 187.506 32.648C188.69 34.696 189.282 37.08 189.282 39.8C189.282 42.52 188.674 44.92 187.458 47C186.274 49.048 184.658 50.632 182.61 51.752C180.562 52.872 178.29 53.432 175.794 53.432ZM175.794 49.592C177.362 49.592 178.834 49.224 180.21 48.488C181.586 47.752 182.69 46.648 183.522 45.176C184.386 43.704 184.818 41.912 184.818 39.8C184.818 37.688 184.402 35.896 183.57 34.424C182.738 32.952 181.65 31.864 180.306 31.16C178.962 30.424 177.506 30.056 175.938 30.056C174.338 30.056 172.866 30.424 171.522 31.16C170.21 31.864 169.154 32.952 168.354 34.424C167.554 35.896 167.154 37.688 167.154 39.8C167.154 41.944 167.538 43.752 168.306 45.224C169.106 46.696 170.162 47.8 171.474 48.536C172.786 49.24 174.226 49.592 175.794 49.592ZM190.081 39.752C190.081 37.064 190.625 34.712 191.713 32.696C192.801 30.648 194.289 29.064 196.177 27.944C198.097 26.824 200.241 26.264 202.609 26.264C204.657 26.264 206.561 26.744 208.321 27.704C210.081 28.632 211.425 29.864 212.353 31.4V17.48H216.769V53H212.353V48.056C211.489 49.624 210.209 50.92 208.513 51.944C206.817 52.936 204.833 53.432 202.561 53.432C200.225 53.432 198.097 52.856 196.177 51.704C194.289 50.552 192.801 48.936 191.713 46.856C190.625 44.776 190.081 42.408 190.081 39.752ZM212.353 39.8C212.353 37.816 211.953 36.088 211.153 34.616C210.353 33.144 209.265 32.024 207.889 31.256C206.545 30.456 205.057 30.056 203.425 30.056C201.793 30.056 200.305 30.44 198.961 31.208C197.617 31.976 196.545 33.096 195.745 34.568C194.945 36.04 194.545 37.768 194.545 39.752C194.545 41.768 194.945 43.528 195.745 45.032C196.545 46.504 197.617 47.64 198.961 48.44C200.305 49.208 201.793 49.592 203.425 49.592C205.057 49.592 206.545 49.208 207.889 48.44C209.265 47.64 210.353 46.504 211.153 45.032C211.953 43.528 212.353 41.784 212.353 39.8ZM219.207 39.752C219.207 37.064 219.751 34.712 220.839 32.696C221.927 30.648 223.415 29.064 225.303 27.944C227.223 26.824 229.351 26.264 231.687 26.264C233.991 26.264 235.991 26.76 237.687 27.752C239.383 28.744 240.647 29.992 241.479 31.496V26.696H245.895V53H241.479V48.104C240.615 49.64 239.319 50.92 237.591 51.944C235.895 52.936 233.911 53.432 231.639 53.432C229.303 53.432 227.191 52.856 225.303 51.704C223.415 50.552 221.927 48.936 220.839 46.856C219.751 44.776 219.207 42.408 219.207 39.752ZM241.479 39.8C241.479 37.816 241.079 36.088 240.279 34.616C239.479 33.144 238.391 32.024 237.015 31.256C235.671 30.456 234.183 30.056 232.551 30.056C230.919 30.056 229.431 30.44 228.087 31.208C226.743 31.976 225.671 33.096 224.871 34.568C224.071 36.04 223.671 37.768 223.671 39.752C223.671 41.768 224.071 43.528 224.871 45.032C225.671 46.504 226.743 47.64 228.087 48.44C229.431 49.208 230.919 49.592 232.551 49.592C234.183 49.592 235.671 49.208 237.015 48.44C238.391 47.64 239.479 46.504 240.279 45.032C241.079 43.528 241.479 41.784 241.479 39.8Z" fill="white"/>
<path d="M131.064 31.544H130.064V35.2923L131.931 32.0421L131.064 31.544ZM134.904 27.8L135.409 28.6632L135.414 28.6603L134.904 27.8ZM147.24 27.944L146.73 28.8041L146.736 28.8078L147.24 27.944ZM151.752 32.696L150.869 33.1652L150.872 33.1709L151.752 32.696ZM151.752 46.856L152.638 47.3195L151.752 46.856ZM147.24 51.704L146.725 50.8465L146.719 50.8504L147.24 51.704ZM134.952 51.944L134.435 52.8001L134.445 52.8058L134.454 52.8113L134.952 51.944ZM131.064 48.152L131.923 47.6402L130.064 44.5196V48.152H131.064ZM131.064 65.48V66.48H132.064V65.48H131.064ZM126.696 65.48H125.696V66.48H126.696V65.48ZM126.696 26.696V25.696H125.696V26.696H126.696ZM131.064 26.696H132.064V25.696H131.064V26.696ZM147.72 34.568L148.599 34.0905V34.0905L147.72 34.568ZM144.456 31.208L143.96 32.0763L143.969 32.0812L144.456 31.208ZM135.528 31.256L136.024 32.1243L136.031 32.1205L135.528 31.256ZM132.264 34.664L131.389 34.1799L131.385 34.1865L132.264 34.664ZM132.264 45.032L131.381 45.5016L131.387 45.5129L131.393 45.5241L132.264 45.032ZM135.528 48.44L135.017 49.2993L135.028 49.3064L135.041 49.3132L135.528 48.44ZM144.456 48.44L144.952 49.3083L144.959 49.3045L144.456 48.44ZM147.72 45.032L148.599 45.5095L148.603 45.5016L147.72 45.032ZM131.931 32.0421C132.697 30.7085 133.843 29.5791 135.409 28.6632L134.399 26.9368C132.573 28.0049 131.159 29.3715 130.197 31.0459L131.931 32.0421ZM135.414 28.6603C136.968 27.7393 138.787 27.264 140.904 27.264V25.264C138.477 25.264 136.296 25.8127 134.394 26.9397L135.414 28.6603ZM140.904 27.264C143.072 27.264 145.006 27.7816 146.73 28.8041L147.75 27.0839C145.698 25.8664 143.408 25.264 140.904 25.264V27.264ZM146.736 28.8078C148.488 29.8299 149.864 31.2739 150.869 33.1652L152.635 32.2268C151.464 30.0221 149.832 28.2981 147.744 27.0802L146.736 28.8078ZM150.872 33.1709C151.869 35.0176 152.384 37.201 152.384 39.752H154.384C154.384 36.927 153.811 34.4064 152.632 32.2211L150.872 33.1709ZM152.384 39.752C152.384 42.268 151.87 44.4734 150.866 46.3925L152.638 47.3195C153.81 45.0786 154.384 42.548 154.384 39.752H152.384ZM150.866 46.3925C149.859 48.3177 148.48 49.7938 146.726 50.8465L147.754 52.5615C149.84 51.3102 151.469 49.5543 152.638 47.3195L150.866 46.3925ZM146.719 50.8504C144.997 51.9012 143.067 52.432 140.904 52.432V54.432C143.413 54.432 145.707 53.8108 147.761 52.5576L146.719 50.8504ZM140.904 52.432C138.817 52.432 137.008 51.9714 135.45 51.0767L134.454 52.8113C136.352 53.9006 138.511 54.432 140.904 54.432V52.432ZM135.469 51.0879C133.895 50.1375 132.724 48.9854 131.923 47.6402L130.205 48.6638C131.196 50.3266 132.617 51.7025 134.435 52.8001L135.469 51.0879ZM130.064 48.152V65.48H132.064V48.152H130.064ZM131.064 64.48H126.696V66.48H131.064V64.48ZM127.696 65.48V26.696H125.696V65.48H127.696ZM126.696 27.696H131.064V25.696H126.696V27.696ZM130.064 26.696V31.544H132.064V26.696H130.064ZM149.92 39.752C149.92 37.6319 149.492 35.7339 148.599 34.0905L146.841 35.0455C147.548 36.3461 147.92 37.9041 147.92 39.752H149.92ZM148.599 34.0905C147.714 32.4632 146.495 31.2009 144.943 30.3348L143.969 32.0812C145.169 32.7511 146.126 33.7288 146.841 35.0455L148.599 34.0905ZM144.952 30.3398C143.449 29.4807 141.788 29.056 139.992 29.056V31.056C141.46 31.056 142.775 31.3993 143.96 32.0762L144.952 30.3398ZM139.992 29.056C138.216 29.056 136.555 29.5023 135.025 30.3915L136.031 32.1205C137.253 31.4097 138.568 31.056 139.992 31.056V29.056ZM135.032 30.3878C133.512 31.2565 132.3 32.5338 131.389 34.1799L133.139 35.1481C133.892 33.7862 134.856 32.7915 136.024 32.1242L135.032 30.3878ZM131.385 34.1865C130.493 35.8276 130.064 37.7089 130.064 39.8H132.064C132.064 37.9871 132.435 36.4444 133.143 35.1415L131.385 34.1865ZM130.064 39.8C130.064 41.9207 130.492 43.8309 131.381 45.5016L133.147 44.5624C132.436 43.2251 132.064 41.6473 132.064 39.8H130.064ZM131.393 45.5241C132.304 47.135 133.511 48.4031 135.017 49.2993L136.039 47.5807C134.857 46.8769 133.888 45.873 133.135 44.5399L131.393 45.5241ZM135.041 49.3132C136.568 50.1657 138.224 50.592 139.992 50.592V48.592C138.56 48.592 137.24 48.2503 136.015 47.5668L135.041 49.3132ZM139.992 50.592C141.788 50.592 143.449 50.1673 144.952 49.3082L143.96 47.5718C142.775 48.2487 141.46 48.592 139.992 48.592V50.592ZM144.959 49.3045C146.502 48.4075 147.716 47.1337 148.599 45.5095L146.841 44.5545C146.124 45.8743 145.162 46.8725 143.953 47.5755L144.959 49.3045ZM148.603 45.5016C149.493 43.8287 149.92 41.9018 149.92 39.752H147.92C147.92 41.6342 147.547 43.2273 146.837 44.5624L148.603 45.5016ZM155.965 21.56L156.673 20.8529L155.965 21.56ZM155.965 17.336L156.673 18.0431L155.965 17.336ZM160.093 17.336L159.366 18.0226L159.376 18.033L159.386 18.0431L160.093 17.336ZM160.093 21.56L159.386 20.8529L159.376 20.863L159.366 20.8734L160.093 21.56ZM160.189 26.696H161.189V25.696H160.189V26.696ZM160.189 53V54H161.189V53H160.189ZM155.821 53H154.822V54H155.821V53ZM155.821 26.696V25.696H154.822V26.696H155.821ZM158.077 21.424C157.504 21.424 157.057 21.2369 156.673 20.8529L155.258 22.2671C156.026 23.0351 156.987 23.424 158.077 23.424V21.424ZM156.673 20.8529C156.289 20.4689 156.102 20.0211 156.102 19.448H154.101C154.101 20.5389 154.49 21.4991 155.258 22.2671L156.673 20.8529ZM156.102 19.448C156.102 18.8749 156.289 18.4271 156.673 18.0431L155.258 16.6289C154.49 17.3969 154.101 18.3571 154.101 19.448H156.102ZM156.673 18.0431C157.057 17.6591 157.504 17.472 158.077 17.472V15.472C156.987 15.472 156.026 15.8609 155.258 16.6289L156.673 18.0431ZM158.077 17.472C158.605 17.472 159.013 17.6488 159.366 18.0226L160.821 16.6494C160.086 15.8712 159.15 15.472 158.077 15.472V17.472ZM159.386 18.0431C159.77 18.4271 159.958 18.8749 159.958 19.448H161.958C161.958 18.3571 161.569 17.3969 160.801 16.6289L159.386 18.0431ZM159.958 19.448C159.958 20.0211 159.77 20.4689 159.386 20.8529L160.801 22.2671C161.569 21.4991 161.958 20.5389 161.958 19.448H159.958ZM159.366 20.8734C159.013 21.2472 158.605 21.424 158.077 21.424V23.424C159.15 23.424 160.086 23.0248 160.821 22.2466L159.366 20.8734ZM159.189 26.696V53H161.189V26.696H159.189ZM160.189 52H155.821V54H160.189V52ZM156.821 53V26.696H154.822V53H156.821ZM155.821 27.696H160.189V25.696H155.821V27.696ZM169.074 51.752L168.582 52.6228L168.588 52.6262L169.074 51.752ZM164.37 47L163.49 47.4741L163.494 47.4822L163.498 47.4903L164.37 47ZM164.418 32.696L163.549 32.2013L163.546 32.2057L164.418 32.696ZM169.218 27.944L169.693 28.8241L169.704 28.8182L169.218 27.944ZM182.754 27.944L182.268 28.8182L182.279 28.824L182.754 27.944ZM187.506 32.648L186.634 33.1383L186.64 33.1485L187.506 32.648ZM187.458 47L186.595 46.4953L186.592 46.4995L187.458 47ZM182.61 51.752L183.09 52.6294L182.61 51.752ZM183.522 45.176L182.66 44.6698L182.655 44.6768L182.651 44.6839L183.522 45.176ZM180.306 31.16L179.826 32.0371L179.834 32.0415L179.842 32.0458L180.306 31.16ZM171.522 31.16L171.995 32.0412L172.002 32.0371L171.522 31.16ZM168.354 34.424L169.233 34.9015L168.354 34.424ZM168.306 45.224L167.419 45.6866L167.423 45.6941L167.427 45.7015L168.306 45.224ZM171.474 48.536L170.985 49.4081L170.993 49.4127L171.001 49.4172L171.474 48.536ZM175.794 52.432C173.488 52.432 171.417 51.9097 169.56 50.8778L168.588 52.6262C170.763 53.8343 173.172 54.432 175.794 54.432V52.432ZM169.566 50.8812C167.746 49.8539 166.307 48.4038 165.242 46.5097L163.498 47.4903C164.737 49.6922 166.434 51.4101 168.582 52.6228L169.566 50.8812ZM165.25 46.5259C164.22 44.6123 163.69 42.3798 163.69 39.8H161.69C161.69 42.6602 162.28 45.2277 163.49 47.4741L165.25 46.5259ZM163.69 39.8C163.69 37.2587 164.233 35.0642 165.29 33.1863L163.546 32.2057C162.299 34.4238 161.69 36.9653 161.69 39.8H163.69ZM165.287 33.1907C166.383 31.2659 167.849 29.8189 169.693 28.824L168.743 27.064C166.555 28.245 164.821 29.9661 163.549 32.2013L165.287 33.1907ZM169.704 28.8182C171.559 27.7874 173.646 27.264 175.986 27.264V25.264C173.334 25.264 170.909 25.8606 168.732 27.0698L169.704 28.8182ZM175.986 27.264C178.326 27.264 180.413 27.7874 182.268 28.8182L183.24 27.0698C181.063 25.8606 178.638 25.264 175.986 25.264V27.264ZM182.279 28.824C184.124 29.8198 185.573 31.2506 186.634 33.1383L188.378 32.1577C187.135 29.9494 185.416 28.2442 183.229 27.064L182.279 28.824ZM186.64 33.1485C187.724 35.0228 188.282 37.229 188.282 39.8H190.282C190.282 36.931 189.656 34.3692 188.372 32.1475L186.64 33.1485ZM188.282 39.8C188.282 42.366 187.71 44.5874 186.595 46.4953L188.321 47.5047C189.638 45.2526 190.282 42.674 190.282 39.8H188.282ZM186.592 46.4995C185.499 48.3911 184.015 49.8438 182.13 50.8746L183.09 52.6294C185.301 51.4202 187.049 49.7049 188.324 47.5005L186.592 46.4995ZM182.13 50.8746C180.239 51.9086 178.134 52.432 175.794 52.432V54.432C178.446 54.432 180.885 53.8354 183.09 52.6294L182.13 50.8746ZM175.794 50.592C177.526 50.592 179.16 50.1838 180.682 49.3698L179.738 47.6062C178.508 48.2642 177.198 48.592 175.794 48.592V50.592ZM180.682 49.3698C182.239 48.5369 183.475 47.2908 184.393 45.6681L182.651 44.6839C181.905 46.0052 180.933 46.9671 179.738 47.6062L180.682 49.3698ZM184.384 45.6822C185.358 44.0242 185.818 42.048 185.818 39.8H183.818C183.818 41.776 183.414 43.3838 182.66 44.6698L184.384 45.6822ZM185.818 39.8C185.818 37.5579 185.376 35.5871 184.441 33.9319L182.699 34.9161C183.428 36.2049 183.818 37.8181 183.818 39.8H185.818ZM184.441 33.9319C183.525 32.3121 182.304 31.0776 180.77 30.2742L179.842 32.0458C180.996 32.6504 181.951 33.5919 182.699 34.9161L184.441 33.9319ZM180.786 30.2829C179.292 29.4643 177.67 29.056 175.938 29.056V31.056C177.342 31.056 178.632 31.3837 179.826 32.0371L180.786 30.2829ZM175.938 29.056C174.178 29.056 172.54 29.4627 171.042 30.2829L172.002 32.0371C173.192 31.3853 174.498 31.056 175.938 31.056V29.056ZM171.049 30.2788C169.545 31.0862 168.356 32.3254 167.475 33.9465L169.233 34.9015C169.952 33.5786 170.875 32.6418 171.995 32.0412L171.049 30.2788ZM167.475 33.9465C166.578 35.5984 166.154 37.5638 166.154 39.8H168.154C168.154 37.8122 168.53 36.1936 169.233 34.9015L167.475 33.9465ZM166.154 39.8C166.154 42.0596 166.558 44.0362 167.419 45.6866L169.193 44.7614C168.518 43.4678 168.154 41.8284 168.154 39.8H166.154ZM167.427 45.7015C168.307 47.3197 169.49 48.5697 170.985 49.4081L171.963 47.6639C170.834 47.0303 169.905 46.0723 169.185 44.7465L167.427 45.7015ZM171.001 49.4172C172.466 50.2033 174.07 50.592 175.794 50.592V48.592C174.382 48.592 173.106 48.2767 171.947 47.6548L171.001 49.4172ZM191.713 32.696L192.593 33.1709L192.596 33.1652L191.713 32.696ZM196.177 27.944L195.673 27.0802L195.667 27.0839L196.177 27.944ZM208.321 27.704L207.842 28.582L207.855 28.5886L208.321 27.704ZM212.353 31.4L211.497 31.9171L213.353 34.989V31.4H212.353ZM212.353 17.48V16.48H211.353V17.48H212.353ZM216.769 17.48H217.769V16.48H216.769V17.48ZM216.769 53V54H217.769V53H216.769ZM212.353 53H211.353V54H212.353V53ZM212.353 48.056H213.353L211.477 47.5734L212.353 48.056ZM208.513 51.944L209.018 52.8073L209.03 52.8001L208.513 51.944ZM196.177 51.704L195.656 52.5577L195.663 52.5615L196.177 51.704ZM191.713 46.856L192.599 46.3925L191.713 46.856ZM207.889 31.256L207.378 32.1153L207.39 32.1224L207.402 32.1292L207.889 31.256ZM198.961 31.208L198.465 30.3398L198.961 31.208ZM195.745 34.568L196.624 35.0455L195.745 34.568ZM195.745 45.032L194.862 45.5016L194.867 45.5095L195.745 45.032ZM198.961 48.44L198.45 49.2993L198.457 49.3038L198.465 49.3082L198.961 48.44ZM207.889 48.44L208.385 49.3083L208.392 49.3045L207.889 48.44ZM211.153 45.032L212.032 45.5095L212.036 45.5016L211.153 45.032ZM191.081 39.752C191.081 37.201 191.597 35.0176 192.593 33.1709L190.833 32.2211C189.654 34.4064 189.081 36.927 189.081 39.752H191.081ZM192.596 33.1652C193.603 31.2697 194.966 29.8251 196.687 28.8041L195.667 27.0839C193.612 28.3029 191.999 30.0263 190.83 32.2268L192.596 33.1652ZM196.681 28.8078C198.438 27.7828 200.406 27.264 202.609 27.264V25.264C200.076 25.264 197.756 25.8652 195.673 27.0802L196.681 28.8078ZM202.609 27.264C204.494 27.264 206.232 27.7038 207.842 28.5819L208.8 26.8261C206.89 25.7842 204.821 25.264 202.609 25.264V27.264ZM207.855 28.5886C209.472 29.4413 210.673 30.5533 211.497 31.9171L213.209 30.8829C212.177 29.1747 210.69 27.8227 208.788 26.8194L207.855 28.5886ZM213.353 31.4V17.48H211.353V31.4H213.353ZM212.353 18.48H216.769V16.48H212.353V18.48ZM215.769 17.48V53H217.769V17.48H215.769ZM216.769 52H212.353V54H216.769V52ZM213.353 53V48.056H211.353V53H213.353ZM211.477 47.5734C210.707 48.9715 209.558 50.1448 207.996 51.0879L209.03 52.8001C210.86 51.6952 212.271 50.2765 213.229 48.5386L211.477 47.5734ZM208.008 51.0808C206.488 51.97 204.684 52.432 202.561 52.432V54.432C204.982 54.432 207.146 53.902 209.018 52.8072L208.008 51.0808ZM202.561 52.432C200.398 52.432 198.449 51.9011 196.692 50.8465L195.663 52.5615C197.745 53.8109 200.052 54.432 202.561 54.432V52.432ZM196.698 50.8504C194.974 49.7987 193.608 48.322 192.599 46.3925L190.827 47.3195C191.994 49.55 193.604 51.3053 195.656 52.5576L196.698 50.8504ZM192.599 46.3925C191.595 44.4734 191.081 42.268 191.081 39.752H189.081C189.081 42.548 189.655 45.0786 190.827 47.3195L192.599 46.3925ZM213.353 39.8C213.353 37.6799 212.925 35.7819 212.032 34.1385L210.275 35.0935C210.981 36.3941 211.353 37.9521 211.353 39.8H213.353ZM212.032 34.1385C211.147 32.5112 209.928 31.2489 208.376 30.3828L207.402 32.1292C208.602 32.7991 209.559 33.7768 210.275 35.0935L212.032 34.1385ZM208.401 30.3967C206.895 29.5005 205.229 29.056 203.425 29.056V31.056C204.885 31.056 206.195 31.4115 207.378 32.1153L208.401 30.3967ZM203.425 29.056C201.629 29.056 199.968 29.4807 198.465 30.3398L199.457 32.0762C200.642 31.3993 201.957 31.056 203.425 31.056V29.056ZM198.465 30.3398C196.946 31.2075 195.748 32.4692 194.867 34.0905L196.624 35.0455C197.343 33.7228 198.288 32.7445 199.457 32.0762L198.465 30.3398ZM194.867 34.0905C193.973 35.7339 193.545 37.6319 193.545 39.752H195.545C195.545 37.9041 195.917 36.3461 196.624 35.0455L194.867 34.0905ZM193.545 39.752C193.545 41.9018 193.972 43.8287 194.862 45.5016L196.628 44.5624C195.918 43.2273 195.545 41.6342 195.545 39.752H193.545ZM194.867 45.5095C195.746 47.1278 196.94 48.4008 198.45 49.2993L199.473 47.5807C198.294 46.8792 197.344 45.8802 196.624 44.5545L194.867 45.5095ZM198.465 49.3082C199.968 50.1673 201.629 50.592 203.425 50.592V48.592C201.957 48.592 200.642 48.2487 199.457 47.5718L198.465 49.3082ZM203.425 50.592C205.221 50.592 206.882 50.1673 208.385 49.3082L207.393 47.5718C206.208 48.2487 204.893 48.592 203.425 48.592V50.592ZM208.392 49.3045C209.935 48.4075 211.149 47.1337 212.032 45.5095L210.275 44.5545C209.557 45.8743 208.596 46.8725 207.387 47.5755L208.392 49.3045ZM212.036 45.5016C212.925 43.8309 213.353 41.9207 213.353 39.8H211.353C211.353 41.6473 210.982 43.2251 210.27 44.5624L212.036 45.5016ZM220.839 32.696L221.719 33.1709L221.722 33.1652L220.839 32.696ZM225.303 27.944L224.799 27.0802L224.792 27.0839L225.303 27.944ZM237.687 27.752L237.182 28.6152L237.687 27.752ZM241.479 31.496L240.604 31.9801L242.479 31.496H241.479ZM241.479 26.696V25.696H240.479V26.696H241.479ZM245.895 26.696H246.895V25.696H245.895V26.696ZM245.895 53V54H246.895V53H245.895ZM241.479 53H240.479V54H241.479V53ZM241.479 48.104H242.479V44.2865L240.607 47.6137L241.479 48.104ZM237.591 51.944L238.096 52.8072L238.1 52.8043L237.591 51.944ZM225.303 51.704L224.782 52.5576L225.303 51.704ZM220.839 46.856L221.725 46.3925L220.839 46.856ZM237.015 31.256L236.503 32.1153L236.515 32.1224L236.527 32.1292L237.015 31.256ZM228.087 31.208L227.59 30.3398L228.087 31.208ZM224.871 34.568L225.749 35.0455L224.871 34.568ZM224.871 45.032L223.988 45.5016L223.992 45.5095L224.871 45.032ZM228.087 48.44L227.575 49.2993L227.583 49.3038L227.59 49.3082L228.087 48.44ZM237.015 48.44L237.511 49.3083L237.517 49.3045L237.015 48.44ZM240.279 45.032L241.157 45.5095L241.161 45.5016L240.279 45.032ZM220.207 39.752C220.207 37.201 220.722 35.0176 221.719 33.1709L219.959 32.2211C218.779 34.4064 218.207 36.927 218.207 39.752H220.207ZM221.722 33.1652C222.729 31.2697 224.092 29.8251 225.813 28.8041L224.792 27.0839C222.738 28.3029 221.125 30.0263 219.956 32.2268L221.722 33.1652ZM225.806 28.8078C227.566 27.7816 229.518 27.264 231.687 27.264V25.264C229.183 25.264 226.88 25.8664 224.799 27.0802L225.806 28.8078ZM231.687 27.264C233.844 27.264 235.664 27.7272 237.182 28.6152L238.192 26.8888C236.318 25.7928 234.137 25.264 231.687 25.264V27.264ZM237.182 28.6152C238.745 29.5296 239.871 30.6549 240.604 31.9801L242.354 31.0119C241.423 29.3291 240.02 27.9584 238.192 26.8888L237.182 28.6152ZM242.479 31.496V26.696H240.479V31.496H242.479ZM241.479 27.696H245.895V25.696H241.479V27.696ZM244.895 26.696V53H246.895V26.696H244.895ZM245.895 52H241.479V54H245.895V52ZM242.479 53V48.104H240.479V53H242.479ZM240.607 47.6137C239.841 48.9764 238.679 50.1365 237.081 51.0837L238.1 52.8043C239.958 51.7035 241.389 50.3036 242.35 48.5943L240.607 47.6137ZM237.086 51.0808C235.565 51.97 233.761 52.432 231.639 52.432V54.432C234.06 54.432 236.224 53.902 238.096 52.8072L237.086 51.0808ZM231.639 52.432C229.476 52.432 227.546 51.9012 225.823 50.8504L224.782 52.5576C226.836 53.8108 229.13 54.432 231.639 54.432V52.432ZM225.823 50.8504C224.1 49.7987 222.734 48.322 221.725 46.3925L219.953 47.3195C221.119 49.55 222.729 51.3053 224.782 52.5576L225.823 50.8504ZM221.725 46.3925C220.721 44.4734 220.207 42.268 220.207 39.752H218.207C218.207 42.548 218.78 45.0786 219.953 47.3195L221.725 46.3925ZM242.479 39.8C242.479 37.6799 242.05 35.7819 241.157 34.1385L239.4 35.0935C240.107 36.3941 240.479 37.9521 240.479 39.8H242.479ZM241.157 34.1385C240.273 32.5112 239.054 31.2489 237.502 30.3828L236.527 32.1292C237.727 32.7991 238.684 33.7768 239.4 35.0935L241.157 34.1385ZM237.526 30.3967C236.021 29.5005 234.355 29.056 232.551 29.056V31.056C234.011 31.056 235.321 31.4115 236.503 32.1153L237.526 30.3967ZM232.551 29.056C230.754 29.056 229.094 29.4807 227.59 30.3398L228.583 32.0762C229.767 31.3993 231.083 31.056 232.551 31.056V29.056ZM227.59 30.3398C226.072 31.2075 224.873 32.4692 223.992 34.0905L225.749 35.0455C226.468 33.7228 227.413 32.7445 228.583 32.0762L227.59 30.3398ZM223.992 34.0905C223.099 35.7339 222.671 37.6319 222.671 39.752H224.671C224.671 37.9041 225.042 36.3461 225.749 35.0455L223.992 34.0905ZM222.671 39.752C222.671 41.9018 223.098 43.8287 223.988 45.5016L225.753 44.5624C225.043 43.2273 224.671 41.6342 224.671 39.752H222.671ZM223.992 45.5095C224.872 47.1278 226.066 48.4008 227.575 49.2993L228.598 47.5807C227.42 46.8792 226.47 45.8802 225.749 44.5545L223.992 45.5095ZM227.59 49.3082C229.094 50.1673 230.754 50.592 232.551 50.592V48.592C231.083 48.592 229.767 48.2487 228.583 47.5718L227.59 49.3082ZM232.551 50.592C234.347 50.592 236.007 50.1673 237.511 49.3082L236.518 47.5718C235.334 48.2487 234.018 48.592 232.551 48.592V50.592ZM237.517 49.3045C239.06 48.4075 240.275 47.1337 241.157 45.5095L239.4 44.5545C238.683 45.8743 237.721 46.8725 236.512 47.5755L237.517 49.3045ZM241.161 45.5016C242.05 43.8309 242.479 41.9207 242.479 39.8H240.479C240.479 41.6473 240.107 43.2251 239.396 44.5624L241.161 45.5016Z" fill="black" mask="url(#path-3-outside-2_10_15)"/>
</svg>
