<svg width="250" height="72" viewBox="0 0 250 72" fill="none" xmlns="http://www.w3.org/2000/svg">
<mask id="path-1-outside-1_7_11" maskUnits="userSpaceOnUse" x="2" y="16" width="122" height="51" fill="black">
<rect fill="white" x="2" y="16" width="122" height="51"/>
<path d="M16.752 26.216C18.736 26.216 20.528 26.648 22.128 27.512C23.728 28.344 24.976 29.608 25.872 31.304C26.8 33 27.264 35.064 27.264 37.496V53H22.944V38.12C22.944 35.496 22.288 33.496 20.976 32.12C19.664 30.712 17.872 30.008 15.6 30.008C13.296 30.008 11.456 30.728 10.08 32.168C8.736 33.608 8.064 35.704 8.064 38.456V53H3.696V17.48H8.064V30.44C8.928 29.096 10.112 28.056 11.616 27.32C13.152 26.584 14.864 26.216 16.752 26.216ZM57.7271 26.696V53H53.3591V49.112C52.5271 50.456 51.3591 51.512 49.8551 52.28C48.3831 53.016 46.7511 53.384 44.9591 53.384C42.9111 53.384 41.0711 52.968 39.4391 52.136C37.8071 51.272 36.5111 49.992 35.5511 48.296C34.6231 46.6 34.1591 44.536 34.1591 42.104V26.696H38.4791V41.528C38.4791 44.12 39.1351 46.12 40.4471 47.528C41.7591 48.904 43.5511 49.592 45.8231 49.592C48.1591 49.592 49.9991 48.872 51.3431 47.432C52.6871 45.992 53.3591 43.896 53.3591 41.144V26.696H57.7271ZM75.9503 26.264C78.2223 26.264 80.2063 26.76 81.9023 27.752C83.6303 28.744 84.9103 29.992 85.7423 31.496V26.696H90.1583V53.576C90.1583 55.976 89.6463 58.104 88.6223 59.96C87.5983 61.848 86.1263 63.32 84.2063 64.376C82.3183 65.432 80.1103 65.96 77.5823 65.96C74.1263 65.96 71.2463 65.144 68.9423 63.512C66.6383 61.88 65.2783 59.656 64.8623 56.84H69.1823C69.6623 58.44 70.6543 59.72 72.1583 60.68C73.6623 61.672 75.4703 62.168 77.5823 62.168C79.9823 62.168 81.9343 61.416 83.4383 59.912C84.9743 58.408 85.7423 56.296 85.7423 53.576V48.056C84.8783 49.592 83.5983 50.872 81.9023 51.896C80.2063 52.92 78.2223 53.432 75.9503 53.432C73.6143 53.432 71.4863 52.856 69.5663 51.704C67.6783 50.552 66.1903 48.936 65.1023 46.856C64.0143 44.776 63.4703 42.408 63.4703 39.752C63.4703 37.064 64.0143 34.712 65.1023 32.696C66.1903 30.648 67.6783 29.064 69.5663 27.944C71.4863 26.824 73.6143 26.264 75.9503 26.264ZM85.7423 39.8C85.7423 37.816 85.3423 36.088 84.5423 34.616C83.7423 33.144 82.6543 32.024 81.2783 31.256C79.9343 30.456 78.4463 30.056 76.8143 30.056C75.1823 30.056 73.6943 30.44 72.3503 31.208C71.0063 31.976 69.9343 33.096 69.1343 34.568C68.3343 36.04 67.9343 37.768 67.9343 39.752C67.9343 41.768 68.3343 43.528 69.1343 45.032C69.9343 46.504 71.0063 47.64 72.3503 48.44C73.6943 49.208 75.1823 49.592 76.8143 49.592C78.4463 49.592 79.9343 49.208 81.2783 48.44C82.6543 47.64 83.7423 46.504 84.5423 45.032C85.3423 43.528 85.7423 41.784 85.7423 39.8ZM109.012 53.432C106.548 53.432 104.308 52.872 102.292 51.752C100.308 50.632 98.7398 49.048 97.5878 47C96.4678 44.92 95.9078 42.52 95.9078 39.8C95.9078 37.112 96.4838 34.744 97.6358 32.696C98.8198 30.616 100.42 29.032 102.436 27.944C104.452 26.824 106.708 26.264 109.204 26.264C111.7 26.264 113.956 26.824 115.972 27.944C117.988 29.032 119.572 30.6 120.724 32.648C121.908 34.696 122.5 37.08 122.5 39.8C122.5 42.52 121.892 44.92 120.676 47C119.492 49.048 117.876 50.632 115.828 51.752C113.78 52.872 111.508 53.432 109.012 53.432ZM109.012 49.592C110.58 49.592 112.052 49.224 113.428 48.488C114.804 47.752 115.908 46.648 116.74 45.176C117.604 43.704 118.036 41.912 118.036 39.8C118.036 37.688 117.62 35.896 116.788 34.424C115.956 32.952 114.868 31.864 113.524 31.16C112.18 30.424 110.724 30.056 109.156 30.056C107.556 30.056 106.084 30.424 104.74 31.16C103.428 31.864 102.372 32.952 101.572 34.424C100.772 35.896 100.372 37.688 100.372 39.8C100.372 41.944 100.756 43.752 101.524 45.224C102.324 46.696 103.38 47.8 104.692 48.536C106.004 49.24 107.444 49.592 109.012 49.592Z"/>
</mask>
<path d="M22.128 27.512L21.6529 28.3919L21.6597 28.3956L21.6666 28.3992L22.128 27.512ZM25.872 31.304L24.9878 31.7711L24.9912 31.7776L24.9947 31.784L25.872 31.304ZM27.264 53V54H28.264V53H27.264ZM22.944 53H21.944V54H22.944V53ZM20.976 32.12L20.2443 32.8018L20.2523 32.8101L20.976 32.12ZM10.08 32.168L9.35696 31.4771L9.34895 31.4857L10.08 32.168ZM8.064 53V54H9.064V53H8.064ZM3.696 53H2.696V54H3.696V53ZM3.696 17.48V16.48H2.696V17.48H3.696ZM8.064 17.48H9.064V16.48H8.064V17.48ZM8.064 30.44H7.064V33.8448L8.90518 30.9808L8.064 30.44ZM11.616 27.32L11.1839 26.4182L11.1764 26.4218L11.616 27.32ZM16.752 27.216C18.5856 27.216 20.2119 27.6138 21.6529 28.3919L22.6032 26.6321C20.8441 25.6822 18.8864 25.216 16.752 25.216V27.216ZM21.6666 28.3992C23.0745 29.1313 24.1804 30.2428 24.9878 31.7711L26.7562 30.8369C25.7716 28.9732 24.3815 27.5567 22.5894 26.6248L21.6666 28.3992ZM24.9947 31.784C25.824 33.2996 26.264 35.1893 26.264 37.496H28.264C28.264 34.9387 27.776 32.7004 26.7493 30.824L24.9947 31.784ZM26.264 37.496V53H28.264V37.496H26.264ZM27.264 52H22.944V54H27.264V52ZM23.944 53V38.12H21.944V53H23.944ZM23.944 38.12C23.944 35.338 23.2473 33.0529 21.6997 31.4299L20.2523 32.8101C21.3287 33.9391 21.944 35.654 21.944 38.12H23.944ZM21.7076 31.4383C20.1722 29.7906 18.095 29.008 15.6 29.008V31.008C17.649 31.008 19.1558 31.6334 20.2444 32.8017L21.7076 31.4383ZM15.6 29.008C13.0696 29.008 10.9517 29.8083 9.35701 31.4771L10.803 32.8589C11.9603 31.6477 13.5224 31.008 15.6 31.008V29.008ZM9.34895 31.4857C7.77367 33.1735 7.064 35.5518 7.064 38.456H9.064C9.064 35.8562 9.69833 34.0425 10.8111 32.8503L9.34895 31.4857ZM7.064 38.456V53H9.064V38.456H7.064ZM8.064 52H3.696V54H8.064V52ZM4.696 53V17.48H2.696V53H4.696ZM3.696 18.48H8.064V16.48H3.696V18.48ZM7.064 17.48V30.44H9.064V17.48H7.064ZM8.90518 30.9808C9.66561 29.7979 10.7073 28.878 12.0556 28.2182L11.1764 26.4218C9.51668 27.234 8.19039 28.3941 7.22282 29.8992L8.90518 30.9808ZM12.0481 28.2218C13.4352 27.5572 14.9972 27.216 16.752 27.216V25.216C14.7308 25.216 12.8688 25.6108 11.1839 26.4182L12.0481 28.2218ZM57.7271 26.696H58.7271V25.696H57.7271V26.696ZM57.7271 53V54H58.7271V53H57.7271ZM53.3591 53H52.3591V54H53.3591V53ZM53.3591 49.112H54.3591V45.5968L52.5089 48.5856L53.3591 49.112ZM49.8551 52.28L50.3024 53.1745L50.3099 53.1706L49.8551 52.28ZM39.4391 52.136L38.9712 53.0198L38.9781 53.0234L38.9849 53.0269L39.4391 52.136ZM35.5511 48.296L34.6739 48.776L34.6773 48.7823L34.6809 48.7886L35.5511 48.296ZM34.1591 26.696V25.696H33.1591V26.696H34.1591ZM38.4791 26.696H39.4791V25.696H38.4791V26.696ZM40.4471 47.528L39.7155 48.2098L39.7234 48.2181L40.4471 47.528ZM51.3431 47.432L50.6121 46.7497L50.6121 46.7497L51.3431 47.432ZM53.3591 26.696V25.696H52.3591V26.696H53.3591ZM56.7271 26.696V53H58.7271V26.696H56.7271ZM57.7271 52H53.3591V54H57.7271V52ZM54.3591 53V49.112H52.3591V53H54.3591ZM52.5089 48.5856C51.7796 49.7637 50.7533 50.6985 49.4003 51.3894L50.3099 53.1706C51.965 52.3255 53.2747 51.1483 54.2094 49.6384L52.5089 48.5856ZM49.4079 51.3856C48.0868 52.0461 46.6099 52.384 44.9591 52.384V54.384C46.8923 54.384 48.6794 53.9859 50.3023 53.1744L49.4079 51.3856ZM44.9591 52.384C43.0502 52.384 41.3688 51.9973 39.8933 51.2451L38.9849 53.0269C40.7735 53.9387 42.7721 54.384 44.9591 54.384V52.384ZM39.907 51.2522C38.4533 50.4826 37.2928 49.3429 36.4214 47.8034L34.6809 48.7886C35.7294 50.6411 37.161 52.0614 38.9712 53.0198L39.907 51.2522ZM36.4284 47.816C35.5991 46.3004 35.1591 44.4107 35.1591 42.104H33.1591C33.1591 44.6613 33.6471 46.8996 34.6739 48.776L36.4284 47.816ZM35.1591 42.104V26.696H33.1591V42.104H35.1591ZM34.1591 27.696H38.4791V25.696H34.1591V27.696ZM37.4791 26.696V41.528H39.4791V26.696H37.4791ZM37.4791 41.528C37.4791 44.2836 38.1785 46.5602 39.7155 48.2097L41.1787 46.8463C40.0918 45.6798 39.4791 43.9564 39.4791 41.528H37.4791ZM39.7234 48.2181C41.2605 49.8301 43.3352 50.592 45.8231 50.592V48.592C43.767 48.592 42.2578 47.9779 41.1709 46.8379L39.7234 48.2181ZM45.8231 50.592C48.3803 50.592 50.506 49.7945 52.0742 48.1143L50.6121 46.7497C49.4923 47.9495 47.9379 48.592 45.8231 48.592V50.592ZM52.0742 48.1143C53.6495 46.4265 54.3591 44.0482 54.3591 41.144H52.3591C52.3591 43.7438 51.7248 45.5575 50.6121 46.7497L52.0742 48.1143ZM54.3591 41.144V26.696H52.3591V41.144H54.3591ZM53.3591 27.696H57.7271V25.696H53.3591V27.696ZM81.9023 27.752L81.3974 28.6152L81.4044 28.6193L81.9023 27.752ZM85.7423 31.496L84.8672 31.9801L86.7423 31.496H85.7423ZM85.7423 26.696V25.696H84.7423V26.696H85.7423ZM90.1583 26.696H91.1583V25.696H90.1583V26.696ZM88.6223 59.96L87.7467 59.4769L87.7432 59.4832L88.6223 59.96ZM84.2063 64.376L83.7243 63.4998L83.7181 63.5032L84.2063 64.376ZM68.9423 63.512L68.3642 64.328L68.3642 64.328L68.9423 63.512ZM64.8623 56.84V55.84H63.7037L63.873 56.9861L64.8623 56.84ZM69.1823 56.84L70.1401 56.5527L69.9263 55.84H69.1823V56.84ZM72.1583 60.68L72.7088 59.8452L72.7026 59.8411L72.6963 59.8371L72.1583 60.68ZM83.4383 59.912L82.7386 59.1975L82.7311 59.2049L83.4383 59.912ZM85.7423 48.056H86.7423V44.2385L84.8707 47.5657L85.7423 48.056ZM81.9023 51.896L81.3854 51.0399L81.9023 51.896ZM69.5663 51.704L69.0454 52.5577L69.0518 52.5615L69.5663 51.704ZM65.1023 46.856L65.9883 46.3925L65.9883 46.3925L65.1023 46.856ZM65.1023 32.696L65.9823 33.1709L65.9854 33.1652L65.1023 32.696ZM69.5663 27.944L69.0624 27.0802L69.056 27.0839L69.5663 27.944ZM81.2783 31.256L80.7668 32.1153L80.7787 32.1224L80.7909 32.1292L81.2783 31.256ZM72.3503 31.208L71.8541 30.3398L71.8541 30.3398L72.3503 31.208ZM69.1343 34.568L70.0129 35.0455L70.0129 35.0455L69.1343 34.568ZM69.1343 45.032L68.2513 45.5016L68.2556 45.5095L69.1343 45.032ZM72.3503 48.44L71.8388 49.2993L71.8464 49.3038L71.8541 49.3082L72.3503 48.44ZM81.2783 48.44L81.7744 49.3083L81.7809 49.3045L81.2783 48.44ZM84.5423 45.032L85.4209 45.5095L85.4251 45.5016L84.5423 45.032ZM75.9503 27.264C78.0729 27.264 79.8771 27.726 81.3974 28.6152L82.4071 26.8888C80.5354 25.794 78.3716 25.264 75.9503 25.264V27.264ZM81.4044 28.6193C82.9997 29.5351 84.1369 30.6598 84.8672 31.9801L86.6173 31.0119C85.6836 29.3242 84.2608 27.9529 82.4001 26.8847L81.4044 28.6193ZM86.7423 31.496V26.696H84.7423V31.496H86.7423ZM85.7423 27.696H90.1583V25.696H85.7423V27.696ZM89.1583 26.696V53.576H91.1583V26.696H89.1583ZM89.1583 53.576C89.1583 55.8297 88.6788 57.7875 87.7467 59.4769L89.4978 60.4431C90.6137 58.4205 91.1583 56.1223 91.1583 53.576H89.1583ZM87.7432 59.4832C86.8125 61.1992 85.48 62.5342 83.7243 63.4998L84.6882 65.2522C86.7725 64.1058 88.384 62.4968 89.5013 60.4368L87.7432 59.4832ZM83.7181 63.5032C82.0027 64.4627 79.9683 64.96 77.5823 64.96V66.96C80.2522 66.96 82.6338 66.4013 84.6944 65.2488L83.7181 63.5032ZM77.5823 64.96C74.2862 64.96 71.6205 64.1837 69.5203 62.696L68.3642 64.328C70.872 66.1043 73.9663 66.96 77.5823 66.96V64.96ZM69.5203 62.696C67.4411 61.2232 66.228 59.2423 65.8515 56.6939L63.873 56.9861C64.3285 60.0697 65.8354 62.5368 68.3642 64.328L69.5203 62.696ZM64.8623 57.84H69.1823V55.84H64.8623V57.84ZM68.2244 57.1273C68.7782 58.9732 69.9292 60.4435 71.6202 61.5229L72.6963 59.8371C71.3793 58.9965 70.5463 57.9068 70.1401 56.5527L68.2244 57.1273ZM71.6077 61.5148C73.3016 62.6321 75.3089 63.168 77.5823 63.168V61.168C75.6316 61.168 74.0229 60.7119 72.7088 59.8452L71.6077 61.5148ZM77.5823 63.168C80.2103 63.168 82.4291 62.3354 84.1454 60.6191L82.7311 59.2049C81.4394 60.4966 79.7542 61.168 77.5823 61.168V63.168ZM84.1379 60.6265C85.9138 58.8876 86.7423 56.4896 86.7423 53.576H84.7423C84.7423 56.1024 84.0347 57.9284 82.7386 59.1975L84.1379 60.6265ZM86.7423 53.576V48.056H84.7423V53.576H86.7423ZM84.8707 47.5657C84.1014 48.9333 82.9523 50.0939 81.3854 51.0399L82.4191 52.7521C84.2442 51.6501 85.6551 50.2507 86.6138 48.5463L84.8707 47.5657ZM81.3854 51.0399C79.8671 51.9566 78.0673 52.432 75.9503 52.432V54.432C78.3772 54.432 80.5454 53.8834 82.4191 52.7521L81.3854 51.0399ZM75.9503 52.432C73.7873 52.432 71.8384 51.9011 70.0807 50.8465L69.0518 52.5615C71.1341 53.8109 73.4412 54.432 75.9503 54.432V52.432ZM70.0871 50.8504C68.3636 49.7987 66.9976 48.322 65.9883 46.3925L64.2162 47.3195C65.3829 49.55 66.9929 51.3053 69.0454 52.5576L70.0871 50.8504ZM65.9883 46.3925C64.9845 44.4734 64.4703 42.268 64.4703 39.752H62.4703C62.4703 42.548 63.044 45.0786 64.2162 47.3195L65.9883 46.3925ZM64.4703 39.752C64.4703 37.201 64.9857 35.0176 65.9823 33.1709L64.2222 32.2211C63.0428 34.4064 62.4703 36.927 62.4703 39.752H64.4703ZM65.9854 33.1652C66.9923 31.2697 68.3553 29.8251 70.0765 28.8041L69.056 27.0839C67.0012 28.3029 65.3882 30.0263 64.2191 32.2268L65.9854 33.1652ZM70.0701 28.8078C71.8293 27.7816 73.7819 27.264 75.9503 27.264V25.264C73.4466 25.264 71.1432 25.8664 69.0624 27.0802L70.0701 28.8078ZM86.7423 39.8C86.7423 37.6799 86.314 35.7819 85.4209 34.1385L83.6636 35.0935C84.3705 36.3941 84.7423 37.9521 84.7423 39.8H86.7423ZM85.4209 34.1385C84.5365 32.5112 83.3174 31.2489 81.7656 30.3828L80.7909 32.1292C81.9911 32.7991 82.948 33.7768 83.6636 35.0935L85.4209 34.1385ZM81.7897 30.3967C80.2841 29.5005 78.6181 29.056 76.8143 29.056V31.056C78.2744 31.056 79.5844 31.4115 80.7668 32.1153L81.7897 30.3967ZM76.8143 29.056C75.018 29.056 73.3575 29.4807 71.8541 30.3398L72.8464 32.0762C74.031 31.3993 75.3465 31.056 76.8143 31.056V29.056ZM71.8541 30.3398C70.3355 31.2075 69.1368 32.4692 68.2556 34.0905L70.0129 35.0455C70.7317 33.7228 71.677 32.7445 72.8464 32.0762L71.8541 30.3398ZM68.2556 34.0905C67.3625 35.7339 66.9343 37.6319 66.9343 39.752H68.9343C68.9343 37.9041 69.306 36.3461 70.0129 35.0455L68.2556 34.0905ZM66.9343 39.752C66.9343 41.9018 67.3615 43.8287 68.2514 45.5016L70.0171 44.5624C69.307 43.2273 68.9343 41.6342 68.9343 39.752H66.9343ZM68.2556 45.5095C69.1351 47.1278 70.3293 48.4008 71.8388 49.2993L72.8617 47.5807C71.6832 46.8792 70.7334 45.8802 70.0129 44.5545L68.2556 45.5095ZM71.8541 49.3082C73.3575 50.1673 75.018 50.592 76.8143 50.592V48.592C75.3465 48.592 74.031 48.2487 72.8464 47.5718L71.8541 49.3082ZM76.8143 50.592C78.6105 50.592 80.271 50.1673 81.7744 49.3082L80.7821 47.5718C79.5975 48.2487 78.282 48.592 76.8143 48.592V50.592ZM81.7809 49.3045C83.3238 48.4075 84.5382 47.1337 85.4209 45.5095L83.6636 44.5545C82.9463 45.8743 81.9847 46.8725 80.7756 47.5755L81.7809 49.3045ZM85.4251 45.5016C86.3138 43.8309 86.7423 41.9207 86.7423 39.8H84.7423C84.7423 41.6473 84.3707 43.2251 83.6594 44.5624L85.4251 45.5016ZM102.292 51.752L101.8 52.6228L101.806 52.6262L102.292 51.752ZM97.5878 47L96.7073 47.4741L96.7117 47.4822L96.7162 47.4903L97.5878 47ZM97.6358 32.696L96.7667 32.2013L96.7642 32.2057L97.6358 32.696ZM102.436 27.944L102.911 28.8241L102.921 28.8182L102.436 27.944ZM115.972 27.944L115.486 28.8182L115.497 28.824L115.972 27.944ZM120.724 32.648L119.852 33.1383L119.858 33.1485L120.724 32.648ZM120.676 47L119.812 46.4953L119.81 46.4995L120.676 47ZM115.828 51.752L116.308 52.6294L116.308 52.6294L115.828 51.752ZM116.74 45.176L115.877 44.6698L115.873 44.6768L115.869 44.6839L116.74 45.176ZM113.524 31.16L113.043 32.0371L113.052 32.0415L113.06 32.0458L113.524 31.16ZM104.74 31.16L105.213 32.0412L105.22 32.0371L104.74 31.16ZM101.572 34.424L102.45 34.9015L102.45 34.9015L101.572 34.424ZM101.524 45.224L100.637 45.6866L100.641 45.6941L100.645 45.7015L101.524 45.224ZM104.692 48.536L104.202 49.4081L104.211 49.4127L104.219 49.4172L104.692 48.536ZM109.012 52.432C106.706 52.432 104.635 51.9097 102.777 50.8778L101.806 52.6262C103.981 53.8343 106.39 54.432 109.012 54.432V52.432ZM102.783 50.8812C100.964 49.8539 99.5247 48.4038 98.4593 46.5097L96.7162 47.4903C97.9548 49.6922 99.652 51.4101 101.8 52.6228L102.783 50.8812ZM98.4682 46.5259C97.4378 44.6123 96.9078 42.3798 96.9078 39.8H94.9078C94.9078 42.6602 95.4977 45.2277 96.7073 47.4741L98.4682 46.5259ZM96.9078 39.8C96.9078 37.2587 97.451 35.0642 98.5073 33.1863L96.7642 32.2057C95.5165 34.4238 94.9078 36.9653 94.9078 39.8H96.9078ZM98.5048 33.1907C99.6005 31.2659 101.067 29.8189 102.911 28.824L101.961 27.064C99.7724 28.245 98.039 29.9661 96.7667 32.2013L98.5048 33.1907ZM102.921 28.8182C104.777 27.7874 106.863 27.264 109.204 27.264V25.264C106.552 25.264 104.127 25.8606 101.95 27.0698L102.921 28.8182ZM109.204 27.264C111.544 27.264 113.631 27.7874 115.486 28.8182L116.457 27.0698C114.281 25.8606 111.855 25.264 109.204 25.264V27.264ZM115.497 28.824C117.342 29.8198 118.79 31.2506 119.852 33.1383L121.595 32.1577C120.353 29.9494 118.634 28.2442 116.447 27.064L115.497 28.824ZM119.858 33.1485C120.942 35.0228 121.5 37.229 121.5 39.8H123.5C123.5 36.931 122.874 34.3692 121.589 32.1475L119.858 33.1485ZM121.5 39.8C121.5 42.366 120.928 44.5874 119.812 46.4953L121.539 47.5047C122.856 45.2526 123.5 42.674 123.5 39.8H121.5ZM119.81 46.4995C118.716 48.3911 117.233 49.8438 115.348 50.8746L116.308 52.6294C118.519 51.4202 120.267 49.7049 121.541 47.5005L119.81 46.4995ZM115.348 50.8746C113.457 51.9086 111.352 52.432 109.012 52.432V54.432C111.663 54.432 114.102 53.8354 116.308 52.6294L115.348 50.8746ZM109.012 50.592C110.743 50.592 112.378 50.1838 113.899 49.3698L112.956 47.6062C111.726 48.2642 110.416 48.592 109.012 48.592V50.592ZM113.899 49.3698C115.457 48.5369 116.693 47.2908 117.61 45.6681L115.869 44.6839C115.122 46.0052 114.151 46.9671 112.956 47.6062L113.899 49.3698ZM117.602 45.6822C118.575 44.0242 119.036 42.048 119.036 39.8H117.036C117.036 41.776 116.632 43.3838 115.877 44.6698L117.602 45.6822ZM119.036 39.8C119.036 37.5579 118.594 35.5871 117.658 33.9319L115.917 34.9161C116.646 36.2049 117.036 37.8181 117.036 39.8H119.036ZM117.658 33.9319C116.743 32.3121 115.522 31.0776 113.988 30.2742L113.06 32.0458C114.214 32.6504 115.169 33.5919 115.917 34.9161L117.658 33.9319ZM114.004 30.2829C112.509 29.4643 110.888 29.056 109.156 29.056V31.056C110.56 31.056 111.85 31.3837 113.043 32.0371L114.004 30.2829ZM109.156 29.056C107.396 29.056 105.757 29.4627 104.259 30.2829L105.22 32.0371C106.41 31.3853 107.716 31.056 109.156 31.056V29.056ZM104.267 30.2788C102.762 31.0862 101.574 32.3254 100.693 33.9465L102.45 34.9015C103.169 33.5786 104.093 32.6418 105.213 32.0412L104.267 30.2788ZM100.693 33.9465C99.7953 35.5984 99.3718 37.5638 99.3718 39.8H101.372C101.372 37.8122 101.748 36.1936 102.45 34.9015L100.693 33.9465ZM99.3718 39.8C99.3718 42.0596 99.7761 44.0362 100.637 45.6866L102.41 44.7614C101.735 43.4678 101.372 41.8284 101.372 39.8H99.3718ZM100.645 45.7015C101.525 47.3197 102.708 48.5697 104.202 49.4081L105.181 47.6639C104.052 47.0303 103.123 46.0723 102.402 44.7465L100.645 45.7015ZM104.219 49.4172C105.684 50.2033 107.288 50.592 109.012 50.592V48.592C107.6 48.592 106.323 48.2767 105.165 47.6548L104.219 49.4172Z" fill="white" mask="url(#path-1-outside-1_7_11)"/>
<mask id="path-3-outside-2_7_11" maskUnits="userSpaceOnUse" x="125" y="15" width="122" height="52" fill="black">
<rect fill="white" x="125" y="15" width="122" height="52"/>
<path d="M131.064 31.544C131.928 30.04 133.208 28.792 134.904 27.8C136.632 26.776 138.632 26.264 140.904 26.264C143.24 26.264 145.352 26.824 147.24 27.944C149.16 29.064 150.664 30.648 151.752 32.696C152.84 34.712 153.384 37.064 153.384 39.752C153.384 42.408 152.84 44.776 151.752 46.856C150.664 48.936 149.16 50.552 147.24 51.704C145.352 52.856 143.24 53.432 140.904 53.432C138.664 53.432 136.68 52.936 134.952 51.944C133.256 50.92 131.96 49.656 131.064 48.152V65.48H126.696V26.696H131.064V31.544ZM148.92 39.752C148.92 37.768 148.52 36.04 147.72 34.568C146.92 33.096 145.832 31.976 144.456 31.208C143.112 30.44 141.624 30.056 139.992 30.056C138.392 30.056 136.904 30.456 135.528 31.256C134.184 32.024 133.096 33.16 132.264 34.664C131.464 36.136 131.064 37.848 131.064 39.8C131.064 41.784 131.464 43.528 132.264 45.032C133.096 46.504 134.184 47.64 135.528 48.44C136.904 49.208 138.392 49.592 139.992 49.592C141.624 49.592 143.112 49.208 144.456 48.44C145.832 47.64 146.92 46.504 147.72 45.032C148.52 43.528 148.92 41.768 148.92 39.752ZM158.077 22.424C157.245 22.424 156.541 22.136 155.965 21.56C155.389 20.984 155.101 20.28 155.101 19.448C155.101 18.616 155.389 17.912 155.965 17.336C156.541 16.76 157.245 16.472 158.077 16.472C158.877 16.472 159.549 16.76 160.094 17.336C160.67 17.912 160.958 18.616 160.958 19.448C160.958 20.28 160.67 20.984 160.094 21.56C159.549 22.136 158.877 22.424 158.077 22.424ZM160.19 26.696V53H155.822V26.696H160.19ZM175.794 53.432C173.33 53.432 171.09 52.872 169.074 51.752C167.09 50.632 165.522 49.048 164.37 47C163.25 44.92 162.69 42.52 162.69 39.8C162.69 37.112 163.266 34.744 164.418 32.696C165.602 30.616 167.202 29.032 169.218 27.944C171.234 26.824 173.49 26.264 175.986 26.264C178.482 26.264 180.738 26.824 182.754 27.944C184.77 29.032 186.354 30.6 187.506 32.648C188.69 34.696 189.282 37.08 189.282 39.8C189.282 42.52 188.674 44.92 187.458 47C186.274 49.048 184.658 50.632 182.61 51.752C180.562 52.872 178.29 53.432 175.794 53.432ZM175.794 49.592C177.362 49.592 178.834 49.224 180.21 48.488C181.586 47.752 182.69 46.648 183.522 45.176C184.386 43.704 184.818 41.912 184.818 39.8C184.818 37.688 184.402 35.896 183.57 34.424C182.738 32.952 181.65 31.864 180.306 31.16C178.962 30.424 177.506 30.056 175.938 30.056C174.338 30.056 172.866 30.424 171.522 31.16C170.21 31.864 169.154 32.952 168.354 34.424C167.554 35.896 167.154 37.688 167.154 39.8C167.154 41.944 167.538 43.752 168.306 45.224C169.106 46.696 170.162 47.8 171.474 48.536C172.786 49.24 174.226 49.592 175.794 49.592ZM190.081 39.752C190.081 37.064 190.625 34.712 191.713 32.696C192.801 30.648 194.289 29.064 196.177 27.944C198.097 26.824 200.241 26.264 202.609 26.264C204.657 26.264 206.561 26.744 208.321 27.704C210.081 28.632 211.425 29.864 212.353 31.4V17.48H216.769V53H212.353V48.056C211.489 49.624 210.209 50.92 208.513 51.944C206.817 52.936 204.833 53.432 202.561 53.432C200.225 53.432 198.097 52.856 196.177 51.704C194.289 50.552 192.801 48.936 191.713 46.856C190.625 44.776 190.081 42.408 190.081 39.752ZM212.353 39.8C212.353 37.816 211.953 36.088 211.153 34.616C210.353 33.144 209.265 32.024 207.889 31.256C206.545 30.456 205.057 30.056 203.425 30.056C201.793 30.056 200.305 30.44 198.961 31.208C197.617 31.976 196.545 33.096 195.745 34.568C194.945 36.04 194.545 37.768 194.545 39.752C194.545 41.768 194.945 43.528 195.745 45.032C196.545 46.504 197.617 47.64 198.961 48.44C200.305 49.208 201.793 49.592 203.425 49.592C205.057 49.592 206.545 49.208 207.889 48.44C209.265 47.64 210.353 46.504 211.153 45.032C211.953 43.528 212.353 41.784 212.353 39.8ZM219.207 39.752C219.207 37.064 219.751 34.712 220.839 32.696C221.927 30.648 223.415 29.064 225.303 27.944C227.223 26.824 229.351 26.264 231.687 26.264C233.991 26.264 235.991 26.76 237.687 27.752C239.383 28.744 240.647 29.992 241.479 31.496V26.696H245.895V53H241.479V48.104C240.615 49.64 239.319 50.92 237.591 51.944C235.895 52.936 233.911 53.432 231.639 53.432C229.303 53.432 227.191 52.856 225.303 51.704C223.415 50.552 221.927 48.936 220.839 46.856C219.751 44.776 219.207 42.408 219.207 39.752ZM241.479 39.8C241.479 37.816 241.079 36.088 240.279 34.616C239.479 33.144 238.391 32.024 237.015 31.256C235.671 30.456 234.183 30.056 232.551 30.056C230.919 30.056 229.431 30.44 228.087 31.208C226.743 31.976 225.671 33.096 224.871 34.568C224.071 36.04 223.671 37.768 223.671 39.752C223.671 41.768 224.071 43.528 224.871 45.032C225.671 46.504 226.743 47.64 228.087 48.44C229.431 49.208 230.919 49.592 232.551 49.592C234.183 49.592 235.671 49.208 237.015 48.44C238.391 47.64 239.479 46.504 240.279 45.032C241.079 43.528 241.479 41.784 241.479 39.8Z"/>
</mask>
<path d="M131.064 31.544C131.928 30.04 133.208 28.792 134.904 27.8C136.632 26.776 138.632 26.264 140.904 26.264C143.24 26.264 145.352 26.824 147.24 27.944C149.16 29.064 150.664 30.648 151.752 32.696C152.84 34.712 153.384 37.064 153.384 39.752C153.384 42.408 152.84 44.776 151.752 46.856C150.664 48.936 149.16 50.552 147.24 51.704C145.352 52.856 143.24 53.432 140.904 53.432C138.664 53.432 136.68 52.936 134.952 51.944C133.256 50.92 131.96 49.656 131.064 48.152V65.48H126.696V26.696H131.064V31.544ZM148.92 39.752C148.92 37.768 148.52 36.04 147.72 34.568C146.92 33.096 145.832 31.976 144.456 31.208C143.112 30.44 141.624 30.056 139.992 30.056C138.392 30.056 136.904 30.456 135.528 31.256C134.184 32.024 133.096 33.16 132.264 34.664C131.464 36.136 131.064 37.848 131.064 39.8C131.064 41.784 131.464 43.528 132.264 45.032C133.096 46.504 134.184 47.64 135.528 48.44C136.904 49.208 138.392 49.592 139.992 49.592C141.624 49.592 143.112 49.208 144.456 48.44C145.832 47.64 146.92 46.504 147.72 45.032C148.52 43.528 148.92 41.768 148.92 39.752ZM158.077 22.424C157.245 22.424 156.541 22.136 155.965 21.56C155.389 20.984 155.101 20.28 155.101 19.448C155.101 18.616 155.389 17.912 155.965 17.336C156.541 16.76 157.245 16.472 158.077 16.472C158.877 16.472 159.549 16.76 160.094 17.336C160.67 17.912 160.958 18.616 160.958 19.448C160.958 20.28 160.67 20.984 160.094 21.56C159.549 22.136 158.877 22.424 158.077 22.424ZM160.19 26.696V53H155.822V26.696H160.19ZM175.794 53.432C173.33 53.432 171.09 52.872 169.074 51.752C167.09 50.632 165.522 49.048 164.37 47C163.25 44.92 162.69 42.52 162.69 39.8C162.69 37.112 163.266 34.744 164.418 32.696C165.602 30.616 167.202 29.032 169.218 27.944C171.234 26.824 173.49 26.264 175.986 26.264C178.482 26.264 180.738 26.824 182.754 27.944C184.77 29.032 186.354 30.6 187.506 32.648C188.69 34.696 189.282 37.08 189.282 39.8C189.282 42.52 188.674 44.92 187.458 47C186.274 49.048 184.658 50.632 182.61 51.752C180.562 52.872 178.29 53.432 175.794 53.432ZM175.794 49.592C177.362 49.592 178.834 49.224 180.21 48.488C181.586 47.752 182.69 46.648 183.522 45.176C184.386 43.704 184.818 41.912 184.818 39.8C184.818 37.688 184.402 35.896 183.57 34.424C182.738 32.952 181.65 31.864 180.306 31.16C178.962 30.424 177.506 30.056 175.938 30.056C174.338 30.056 172.866 30.424 171.522 31.16C170.21 31.864 169.154 32.952 168.354 34.424C167.554 35.896 167.154 37.688 167.154 39.8C167.154 41.944 167.538 43.752 168.306 45.224C169.106 46.696 170.162 47.8 171.474 48.536C172.786 49.24 174.226 49.592 175.794 49.592ZM190.081 39.752C190.081 37.064 190.625 34.712 191.713 32.696C192.801 30.648 194.289 29.064 196.177 27.944C198.097 26.824 200.241 26.264 202.609 26.264C204.657 26.264 206.561 26.744 208.321 27.704C210.081 28.632 211.425 29.864 212.353 31.4V17.48H216.769V53H212.353V48.056C211.489 49.624 210.209 50.92 208.513 51.944C206.817 52.936 204.833 53.432 202.561 53.432C200.225 53.432 198.097 52.856 196.177 51.704C194.289 50.552 192.801 48.936 191.713 46.856C190.625 44.776 190.081 42.408 190.081 39.752ZM212.353 39.8C212.353 37.816 211.953 36.088 211.153 34.616C210.353 33.144 209.265 32.024 207.889 31.256C206.545 30.456 205.057 30.056 203.425 30.056C201.793 30.056 200.305 30.44 198.961 31.208C197.617 31.976 196.545 33.096 195.745 34.568C194.945 36.04 194.545 37.768 194.545 39.752C194.545 41.768 194.945 43.528 195.745 45.032C196.545 46.504 197.617 47.64 198.961 48.44C200.305 49.208 201.793 49.592 203.425 49.592C205.057 49.592 206.545 49.208 207.889 48.44C209.265 47.64 210.353 46.504 211.153 45.032C211.953 43.528 212.353 41.784 212.353 39.8ZM219.207 39.752C219.207 37.064 219.751 34.712 220.839 32.696C221.927 30.648 223.415 29.064 225.303 27.944C227.223 26.824 229.351 26.264 231.687 26.264C233.991 26.264 235.991 26.76 237.687 27.752C239.383 28.744 240.647 29.992 241.479 31.496V26.696H245.895V53H241.479V48.104C240.615 49.64 239.319 50.92 237.591 51.944C235.895 52.936 233.911 53.432 231.639 53.432C229.303 53.432 227.191 52.856 225.303 51.704C223.415 50.552 221.927 48.936 220.839 46.856C219.751 44.776 219.207 42.408 219.207 39.752ZM241.479 39.8C241.479 37.816 241.079 36.088 240.279 34.616C239.479 33.144 238.391 32.024 237.015 31.256C235.671 30.456 234.183 30.056 232.551 30.056C230.919 30.056 229.431 30.44 228.087 31.208C226.743 31.976 225.671 33.096 224.871 34.568C224.071 36.04 223.671 37.768 223.671 39.752C223.671 41.768 224.071 43.528 224.871 45.032C225.671 46.504 226.743 47.64 228.087 48.44C229.431 49.208 230.919 49.592 232.551 49.592C234.183 49.592 235.671 49.208 237.015 48.44C238.391 47.64 239.479 46.504 240.279 45.032C241.079 43.528 241.479 41.784 241.479 39.8Z" fill="white"/>
<path d="M131.064 31.544H130.064V35.2923L131.931 32.0421L131.064 31.544ZM134.904 27.8L135.409 28.6632L135.414 28.6603L134.904 27.8ZM147.24 27.944L146.73 28.8041L146.736 28.8078L147.24 27.944ZM151.752 32.696L150.869 33.1652L150.872 33.1709L151.752 32.696ZM151.752 46.856L152.638 47.3195L152.638 47.3195L151.752 46.856ZM147.24 51.704L146.725 50.8465L146.719 50.8504L147.24 51.704ZM134.952 51.944L134.435 52.8001L134.445 52.8058L134.454 52.8113L134.952 51.944ZM131.064 48.152L131.923 47.6402L130.064 44.5196V48.152H131.064ZM131.064 65.48V66.48H132.064V65.48H131.064ZM126.696 65.48H125.696V66.48H126.696V65.48ZM126.696 26.696V25.696H125.696V26.696H126.696ZM131.064 26.696H132.064V25.696H131.064V26.696ZM147.72 34.568L148.599 34.0905L148.599 34.0905L147.72 34.568ZM144.456 31.208L143.96 32.0763L143.969 32.0812L144.456 31.208ZM135.528 31.256L136.024 32.1243L136.031 32.1205L135.528 31.256ZM132.264 34.664L131.389 34.1799L131.385 34.1865L132.264 34.664ZM132.264 45.032L131.381 45.5016L131.387 45.5129L131.393 45.5241L132.264 45.032ZM135.528 48.44L135.017 49.2993L135.028 49.3064L135.041 49.3132L135.528 48.44ZM144.456 48.44L144.952 49.3083L144.959 49.3045L144.456 48.44ZM147.72 45.032L148.599 45.5095L148.603 45.5016L147.72 45.032ZM131.931 32.0421C132.697 30.7085 133.843 29.5791 135.409 28.6632L134.399 26.9368C132.573 28.0049 131.159 29.3715 130.197 31.0459L131.931 32.0421ZM135.414 28.6603C136.968 27.7393 138.787 27.264 140.904 27.264V25.264C138.477 25.264 136.296 25.8127 134.394 26.9397L135.414 28.6603ZM140.904 27.264C143.072 27.264 145.006 27.7816 146.73 28.8041L147.75 27.0839C145.698 25.8664 143.408 25.264 140.904 25.264V27.264ZM146.736 28.8078C148.488 29.8299 149.864 31.2739 150.869 33.1652L152.635 32.2268C151.464 30.0221 149.832 28.2981 147.744 27.0802L146.736 28.8078ZM150.872 33.1709C151.869 35.0176 152.384 37.201 152.384 39.752H154.384C154.384 36.927 153.811 34.4064 152.632 32.2211L150.872 33.1709ZM152.384 39.752C152.384 42.268 151.87 44.4734 150.866 46.3925L152.638 47.3195C153.81 45.0786 154.384 42.548 154.384 39.752H152.384ZM150.866 46.3925C149.859 48.3177 148.48 49.7938 146.726 50.8465L147.754 52.5615C149.84 51.3102 151.469 49.5543 152.638 47.3195L150.866 46.3925ZM146.719 50.8504C144.997 51.9012 143.067 52.432 140.904 52.432V54.432C143.413 54.432 145.707 53.8108 147.761 52.5576L146.719 50.8504ZM140.904 52.432C138.817 52.432 137.008 51.9714 135.45 51.0767L134.454 52.8113C136.352 53.9006 138.511 54.432 140.904 54.432V52.432ZM135.469 51.0879C133.895 50.1375 132.724 48.9854 131.923 47.6402L130.205 48.6638C131.196 50.3266 132.617 51.7025 134.435 52.8001L135.469 51.0879ZM130.064 48.152V65.48H132.064V48.152H130.064ZM131.064 64.48H126.696V66.48H131.064V64.48ZM127.696 65.48V26.696H125.696V65.48H127.696ZM126.696 27.696H131.064V25.696H126.696V27.696ZM130.064 26.696V31.544H132.064V26.696H130.064ZM149.92 39.752C149.92 37.6319 149.492 35.7339 148.599 34.0905L146.841 35.0455C147.548 36.3461 147.92 37.9041 147.92 39.752H149.92ZM148.599 34.0905C147.714 32.4632 146.495 31.2009 144.943 30.3348L143.969 32.0812C145.169 32.7511 146.126 33.7288 146.841 35.0455L148.599 34.0905ZM144.952 30.3398C143.449 29.4807 141.788 29.056 139.992 29.056V31.056C141.46 31.056 142.775 31.3993 143.96 32.0762L144.952 30.3398ZM139.992 29.056C138.216 29.056 136.555 29.5023 135.025 30.3915L136.031 32.1205C137.253 31.4097 138.568 31.056 139.992 31.056V29.056ZM135.032 30.3878C133.512 31.2565 132.3 32.5338 131.389 34.1799L133.139 35.1481C133.892 33.7862 134.856 32.7915 136.024 32.1242L135.032 30.3878ZM131.385 34.1865C130.493 35.8276 130.064 37.7089 130.064 39.8H132.064C132.064 37.9871 132.435 36.4444 133.143 35.1415L131.385 34.1865ZM130.064 39.8C130.064 41.9207 130.492 43.8309 131.381 45.5016L133.147 44.5624C132.436 43.2251 132.064 41.6473 132.064 39.8H130.064ZM131.393 45.5241C132.304 47.135 133.511 48.4031 135.017 49.2993L136.039 47.5807C134.857 46.8769 133.888 45.873 133.135 44.5399L131.393 45.5241ZM135.041 49.3132C136.568 50.1657 138.224 50.592 139.992 50.592V48.592C138.56 48.592 137.24 48.2503 136.015 47.5668L135.041 49.3132ZM139.992 50.592C141.788 50.592 143.449 50.1673 144.952 49.3082L143.96 47.5718C142.775 48.2487 141.46 48.592 139.992 48.592V50.592ZM144.959 49.3045C146.502 48.4075 147.716 47.1337 148.599 45.5095L146.841 44.5545C146.124 45.8743 145.162 46.8725 143.953 47.5755L144.959 49.3045ZM148.603 45.5016C149.493 43.8287 149.92 41.9018 149.92 39.752H147.92C147.92 41.6342 147.547 43.2273 146.837 44.5624L148.603 45.5016ZM155.965 21.56L156.673 20.8529L156.673 20.8529L155.965 21.56ZM155.965 17.336L156.673 18.0431L156.673 18.0431L155.965 17.336ZM160.094 17.336L159.366 18.0226L159.376 18.033L159.386 18.0431L160.094 17.336ZM160.094 21.56L159.386 20.8529L159.376 20.863L159.366 20.8734L160.094 21.56ZM160.19 26.696H161.19V25.696H160.19V26.696ZM160.19 53V54H161.19V53H160.19ZM155.822 53H154.822V54H155.822V53ZM155.822 26.696V25.696H154.822V26.696H155.822ZM158.077 21.424C157.504 21.424 157.057 21.2369 156.673 20.8529L155.258 22.2671C156.026 23.0351 156.987 23.424 158.077 23.424V21.424ZM156.673 20.8529C156.289 20.4689 156.101 20.0211 156.101 19.448H154.101C154.101 20.5389 154.49 21.4991 155.258 22.2671L156.673 20.8529ZM156.101 19.448C156.101 18.8749 156.289 18.4271 156.673 18.0431L155.258 16.6289C154.49 17.3969 154.101 18.3571 154.101 19.448H156.101ZM156.673 18.0431C157.057 17.6591 157.504 17.472 158.077 17.472V15.472C156.987 15.472 156.026 15.8609 155.258 16.6289L156.673 18.0431ZM158.077 17.472C158.605 17.472 159.013 17.6488 159.366 18.0226L160.821 16.6494C160.086 15.8712 159.15 15.472 158.077 15.472V17.472ZM159.386 18.0431C159.77 18.4271 159.958 18.8749 159.958 19.448H161.958C161.958 18.3571 161.569 17.3969 160.801 16.6289L159.386 18.0431ZM159.958 19.448C159.958 20.0211 159.77 20.4689 159.386 20.8529L160.801 22.2671C161.569 21.4991 161.958 20.5389 161.958 19.448H159.958ZM159.366 20.8734C159.013 21.2472 158.605 21.424 158.077 21.424V23.424C159.15 23.424 160.086 23.0248 160.821 22.2466L159.366 20.8734ZM159.19 26.696V53H161.19V26.696H159.19ZM160.19 52H155.822V54H160.19V52ZM156.822 53V26.696H154.822V53H156.822ZM155.822 27.696H160.19V25.696H155.822V27.696ZM169.074 51.752L168.582 52.6228L168.588 52.6262L169.074 51.752ZM164.37 47L163.49 47.4741L163.494 47.4822L163.498 47.4903L164.37 47ZM164.418 32.696L163.549 32.2013L163.546 32.2057L164.418 32.696ZM169.218 27.944L169.693 28.8241L169.704 28.8182L169.218 27.944ZM182.754 27.944L182.268 28.8182L182.279 28.824L182.754 27.944ZM187.506 32.648L186.634 33.1383L186.64 33.1485L187.506 32.648ZM187.458 47L186.595 46.4953L186.592 46.4995L187.458 47ZM182.61 51.752L183.09 52.6294L183.09 52.6294L182.61 51.752ZM183.522 45.176L182.66 44.6698L182.655 44.6768L182.651 44.6839L183.522 45.176ZM180.306 31.16L179.826 32.0371L179.834 32.0415L179.842 32.0458L180.306 31.16ZM171.522 31.16L171.995 32.0412L172.002 32.0371L171.522 31.16ZM168.354 34.424L169.233 34.9015L169.233 34.9015L168.354 34.424ZM168.306 45.224L167.419 45.6866L167.423 45.6941L167.427 45.7015L168.306 45.224ZM171.474 48.536L170.985 49.4081L170.993 49.4127L171.001 49.4172L171.474 48.536ZM175.794 52.432C173.488 52.432 171.417 51.9097 169.56 50.8778L168.588 52.6262C170.763 53.8343 173.172 54.432 175.794 54.432V52.432ZM169.566 50.8812C167.746 49.8539 166.307 48.4038 165.242 46.5097L163.498 47.4903C164.737 49.6922 166.434 51.4101 168.582 52.6228L169.566 50.8812ZM165.25 46.5259C164.22 44.6123 163.69 42.3798 163.69 39.8H161.69C161.69 42.6602 162.28 45.2277 163.49 47.4741L165.25 46.5259ZM163.69 39.8C163.69 37.2587 164.233 35.0642 165.29 33.1863L163.546 32.2057C162.299 34.4238 161.69 36.9653 161.69 39.8H163.69ZM165.287 33.1907C166.383 31.2659 167.849 29.8189 169.693 28.824L168.743 27.064C166.555 28.245 164.821 29.9661 163.549 32.2013L165.287 33.1907ZM169.704 28.8182C171.559 27.7874 173.646 27.264 175.986 27.264V25.264C173.334 25.264 170.909 25.8606 168.732 27.0698L169.704 28.8182ZM175.986 27.264C178.326 27.264 180.413 27.7874 182.268 28.8182L183.24 27.0698C181.063 25.8606 178.638 25.264 175.986 25.264V27.264ZM182.279 28.824C184.124 29.8198 185.573 31.2506 186.634 33.1383L188.378 32.1577C187.135 29.9494 185.416 28.2442 183.229 27.064L182.279 28.824ZM186.64 33.1485C187.724 35.0228 188.282 37.229 188.282 39.8H190.282C190.282 36.931 189.656 34.3692 188.372 32.1475L186.64 33.1485ZM188.282 39.8C188.282 42.366 187.71 44.5874 186.595 46.4953L188.321 47.5047C189.638 45.2526 190.282 42.674 190.282 39.8H188.282ZM186.592 46.4995C185.499 48.3911 184.015 49.8438 182.13 50.8746L183.09 52.6294C185.301 51.4202 187.049 49.7049 188.324 47.5005L186.592 46.4995ZM182.13 50.8746C180.239 51.9086 178.134 52.432 175.794 52.432V54.432C178.446 54.432 180.885 53.8354 183.09 52.6294L182.13 50.8746ZM175.794 50.592C177.526 50.592 179.16 50.1838 180.682 49.3698L179.738 47.6062C178.508 48.2642 177.198 48.592 175.794 48.592V50.592ZM180.682 49.3698C182.239 48.5369 183.475 47.2908 184.393 45.6681L182.651 44.6839C181.905 46.0052 180.933 46.9671 179.738 47.6062L180.682 49.3698ZM184.384 45.6822C185.358 44.0242 185.818 42.048 185.818 39.8H183.818C183.818 41.776 183.414 43.3838 182.66 44.6698L184.384 45.6822ZM185.818 39.8C185.818 37.5579 185.376 35.5871 184.441 33.9319L182.699 34.9161C183.428 36.2049 183.818 37.8181 183.818 39.8H185.818ZM184.441 33.9319C183.525 32.3121 182.304 31.0776 180.77 30.2742L179.842 32.0458C180.996 32.6504 181.951 33.5919 182.699 34.9161L184.441 33.9319ZM180.786 30.2829C179.292 29.4643 177.67 29.056 175.938 29.056V31.056C177.342 31.056 178.632 31.3837 179.826 32.0371L180.786 30.2829ZM175.938 29.056C174.178 29.056 172.54 29.4627 171.042 30.2829L172.002 32.0371C173.192 31.3853 174.498 31.056 175.938 31.056V29.056ZM171.049 30.2788C169.545 31.0862 168.356 32.3254 167.475 33.9465L169.233 34.9015C169.952 33.5786 170.875 32.6418 171.995 32.0412L171.049 30.2788ZM167.475 33.9465C166.578 35.5984 166.154 37.5638 166.154 39.8H168.154C168.154 37.8122 168.53 36.1936 169.233 34.9015L167.475 33.9465ZM166.154 39.8C166.154 42.0596 166.558 44.0362 167.419 45.6866L169.193 44.7614C168.518 43.4678 168.154 41.8284 168.154 39.8H166.154ZM167.427 45.7015C168.307 47.3197 169.49 48.5697 170.985 49.4081L171.963 47.6639C170.834 47.0303 169.905 46.0723 169.185 44.7465L167.427 45.7015ZM171.001 49.4172C172.466 50.2033 174.07 50.592 175.794 50.592V48.592C174.382 48.592 173.106 48.2767 171.947 47.6548L171.001 49.4172ZM191.713 32.696L192.593 33.1709L192.596 33.1652L191.713 32.696ZM196.177 27.944L195.673 27.0802L195.667 27.0839L196.177 27.944ZM208.321 27.704L207.842 28.582L207.855 28.5886L208.321 27.704ZM212.353 31.4L211.497 31.9171L213.353 34.989V31.4H212.353ZM212.353 17.48V16.48H211.353V17.48H212.353ZM216.769 17.48H217.769V16.48H216.769V17.48ZM216.769 53V54H217.769V53H216.769ZM212.353 53H211.353V54H212.353V53ZM212.353 48.056H213.353L211.477 47.5734L212.353 48.056ZM208.513 51.944L209.018 52.8073L209.03 52.8001L208.513 51.944ZM196.177 51.704L195.656 52.5577L195.663 52.5615L196.177 51.704ZM191.713 46.856L192.599 46.3925L192.599 46.3925L191.713 46.856ZM207.889 31.256L207.378 32.1153L207.39 32.1224L207.402 32.1292L207.889 31.256ZM198.961 31.208L198.465 30.3398L198.465 30.3398L198.961 31.208ZM195.745 34.568L196.624 35.0455L196.624 35.0455L195.745 34.568ZM195.745 45.032L194.862 45.5016L194.867 45.5095L195.745 45.032ZM198.961 48.44L198.45 49.2993L198.457 49.3038L198.465 49.3082L198.961 48.44ZM207.889 48.44L208.385 49.3083L208.392 49.3045L207.889 48.44ZM211.153 45.032L212.032 45.5095L212.036 45.5016L211.153 45.032ZM191.081 39.752C191.081 37.201 191.597 35.0176 192.593 33.1709L190.833 32.2211C189.654 34.4064 189.081 36.927 189.081 39.752H191.081ZM192.596 33.1652C193.603 31.2697 194.966 29.8251 196.687 28.8041L195.667 27.0839C193.612 28.3029 191.999 30.0263 190.83 32.2268L192.596 33.1652ZM196.681 28.8078C198.438 27.7828 200.406 27.264 202.609 27.264V25.264C200.076 25.264 197.756 25.8651 195.673 27.0802L196.681 28.8078ZM202.609 27.264C204.494 27.264 206.232 27.7038 207.842 28.5819L208.8 26.8261C206.89 25.7842 204.821 25.264 202.609 25.264V27.264ZM207.855 28.5886C209.472 29.4413 210.673 30.5533 211.497 31.9171L213.209 30.8829C212.177 29.1747 210.69 27.8227 208.788 26.8194L207.855 28.5886ZM213.353 31.4V17.48H211.353V31.4H213.353ZM212.353 18.48H216.769V16.48H212.353V18.48ZM215.769 17.48V53H217.769V17.48H215.769ZM216.769 52H212.353V54H216.769V52ZM213.353 53V48.056H211.353V53H213.353ZM211.477 47.5734C210.707 48.9715 209.558 50.1448 207.996 51.0879L209.03 52.8001C210.86 51.6952 212.271 50.2765 213.229 48.5386L211.477 47.5734ZM208.008 51.0808C206.488 51.97 204.684 52.432 202.561 52.432V54.432C204.982 54.432 207.146 53.902 209.018 52.8072L208.008 51.0808ZM202.561 52.432C200.398 52.432 198.449 51.9011 196.692 50.8465L195.663 52.5615C197.745 53.8109 200.052 54.432 202.561 54.432V52.432ZM196.698 50.8504C194.974 49.7987 193.609 48.322 192.599 46.3925L190.827 47.3195C191.994 49.55 193.604 51.3053 195.656 52.5576L196.698 50.8504ZM192.599 46.3925C191.595 44.4734 191.081 42.268 191.081 39.752H189.081C189.081 42.548 189.655 45.0786 190.827 47.3195L192.599 46.3925ZM213.353 39.8C213.353 37.6799 212.925 35.7819 212.032 34.1385L210.275 35.0935C210.981 36.3941 211.353 37.9521 211.353 39.8H213.353ZM212.032 34.1385C211.147 32.5112 209.928 31.2489 208.376 30.3828L207.402 32.1292C208.602 32.7991 209.559 33.7768 210.275 35.0935L212.032 34.1385ZM208.401 30.3967C206.895 29.5005 205.229 29.056 203.425 29.056V31.056C204.885 31.056 206.195 31.4115 207.378 32.1153L208.401 30.3967ZM203.425 29.056C201.629 29.056 199.968 29.4807 198.465 30.3398L199.457 32.0762C200.642 31.3993 201.957 31.056 203.425 31.056V29.056ZM198.465 30.3398C196.946 31.2075 195.748 32.4692 194.867 34.0905L196.624 35.0455C197.343 33.7228 198.288 32.7445 199.457 32.0762L198.465 30.3398ZM194.867 34.0905C193.973 35.7339 193.545 37.6319 193.545 39.752H195.545C195.545 37.9041 195.917 36.3461 196.624 35.0455L194.867 34.0905ZM193.545 39.752C193.545 41.9018 193.972 43.8287 194.862 45.5016L196.628 44.5624C195.918 43.2273 195.545 41.6342 195.545 39.752H193.545ZM194.867 45.5095C195.746 47.1278 196.94 48.4008 198.45 49.2993L199.473 47.5807C198.294 46.8792 197.344 45.8802 196.624 44.5545L194.867 45.5095ZM198.465 49.3082C199.968 50.1673 201.629 50.592 203.425 50.592V48.592C201.957 48.592 200.642 48.2487 199.457 47.5718L198.465 49.3082ZM203.425 50.592C205.221 50.592 206.882 50.1673 208.385 49.3082L207.393 47.5718C206.208 48.2487 204.893 48.592 203.425 48.592V50.592ZM208.392 49.3045C209.935 48.4075 211.149 47.1337 212.032 45.5095L210.275 44.5545C209.557 45.8743 208.596 46.8725 207.387 47.5755L208.392 49.3045ZM212.036 45.5016C212.925 43.8309 213.353 41.9207 213.353 39.8H211.353C211.353 41.6473 210.982 43.2251 210.27 44.5624L212.036 45.5016ZM220.839 32.696L221.719 33.1709L221.722 33.1652L220.839 32.696ZM225.303 27.944L224.799 27.0802L224.792 27.0839L225.303 27.944ZM237.687 27.752L237.182 28.6152L237.182 28.6152L237.687 27.752ZM241.479 31.496L240.604 31.9801L242.479 31.496H241.479ZM241.479 26.696V25.696H240.479V26.696H241.479ZM245.895 26.696H246.895V25.696H245.895V26.696ZM245.895 53V54H246.895V53H245.895ZM241.479 53H240.479V54H241.479V53ZM241.479 48.104H242.479V44.2865L240.607 47.6137L241.479 48.104ZM237.591 51.944L238.096 52.8072L238.1 52.8043L237.591 51.944ZM225.303 51.704L224.782 52.5576L224.782 52.5576L225.303 51.704ZM220.839 46.856L221.725 46.3925L221.725 46.3925L220.839 46.856ZM237.015 31.256L236.503 32.1153L236.515 32.1224L236.527 32.1292L237.015 31.256ZM228.087 31.208L227.59 30.3398L227.59 30.3398L228.087 31.208ZM224.871 34.568L225.749 35.0455L225.749 35.0455L224.871 34.568ZM224.871 45.032L223.988 45.5016L223.992 45.5095L224.871 45.032ZM228.087 48.44L227.575 49.2993L227.583 49.3038L227.59 49.3082L228.087 48.44ZM237.015 48.44L237.511 49.3083L237.517 49.3045L237.015 48.44ZM240.279 45.032L241.157 45.5095L241.161 45.5016L240.279 45.032ZM220.207 39.752C220.207 37.201 220.722 35.0176 221.719 33.1709L219.959 32.2211C218.779 34.4064 218.207 36.927 218.207 39.752H220.207ZM221.722 33.1652C222.729 31.2697 224.092 29.8251 225.813 28.8041L224.792 27.0839C222.738 28.3029 221.125 30.0263 219.956 32.2268L221.722 33.1652ZM225.806 28.8078C227.566 27.7816 229.518 27.264 231.687 27.264V25.264C229.183 25.264 226.88 25.8664 224.799 27.0802L225.806 28.8078ZM231.687 27.264C233.844 27.264 235.664 27.7272 237.182 28.6152L238.192 26.8888C236.318 25.7928 234.137 25.264 231.687 25.264V27.264ZM237.182 28.6152C238.745 29.5296 239.871 30.6549 240.604 31.9801L242.354 31.0119C241.423 29.3291 240.02 27.9584 238.192 26.8888L237.182 28.6152ZM242.479 31.496V26.696H240.479V31.496H242.479ZM241.479 27.696H245.895V25.696H241.479V27.696ZM244.895 26.696V53H246.895V26.696H244.895ZM245.895 52H241.479V54H245.895V52ZM242.479 53V48.104H240.479V53H242.479ZM240.607 47.6137C239.841 48.9764 238.679 50.1365 237.081 51.0837L238.1 52.8043C239.958 51.7035 241.389 50.3036 242.35 48.5943L240.607 47.6137ZM237.086 51.0808C235.565 51.97 233.761 52.432 231.639 52.432V54.432C234.06 54.432 236.224 53.902 238.096 52.8072L237.086 51.0808ZM231.639 52.432C229.476 52.432 227.546 51.9012 225.823 50.8504L224.782 52.5576C226.836 53.8108 229.13 54.432 231.639 54.432V52.432ZM225.823 50.8504C224.1 49.7987 222.734 48.322 221.725 46.3925L219.953 47.3195C221.119 49.55 222.729 51.3053 224.782 52.5576L225.823 50.8504ZM221.725 46.3925C220.721 44.4734 220.207 42.268 220.207 39.752H218.207C218.207 42.548 218.78 45.0786 219.953 47.3195L221.725 46.3925ZM242.479 39.8C242.479 37.6799 242.05 35.7819 241.157 34.1385L239.4 35.0935C240.107 36.3941 240.479 37.9521 240.479 39.8H242.479ZM241.157 34.1385C240.273 32.5112 239.054 31.2489 237.502 30.3828L236.527 32.1292C237.727 32.7991 238.684 33.7768 239.4 35.0935L241.157 34.1385ZM237.526 30.3967C236.021 29.5005 234.355 29.056 232.551 29.056V31.056C234.011 31.056 235.321 31.4115 236.503 32.1153L237.526 30.3967ZM232.551 29.056C230.754 29.056 229.094 29.4807 227.59 30.3398L228.583 32.0762C229.767 31.3993 231.083 31.056 232.551 31.056V29.056ZM227.59 30.3398C226.072 31.2075 224.873 32.4692 223.992 34.0905L225.749 35.0455C226.468 33.7228 227.413 32.7445 228.583 32.0762L227.59 30.3398ZM223.992 34.0905C223.099 35.7339 222.671 37.6319 222.671 39.752H224.671C224.671 37.9041 225.042 36.3461 225.749 35.0455L223.992 34.0905ZM222.671 39.752C222.671 41.9018 223.098 43.8287 223.988 45.5016L225.753 44.5624C225.043 43.2273 224.671 41.6342 224.671 39.752H222.671ZM223.992 45.5095C224.872 47.1278 226.066 48.4008 227.575 49.2993L228.598 47.5807C227.42 46.8792 226.47 45.8802 225.749 44.5545L223.992 45.5095ZM227.59 49.3082C229.094 50.1673 230.754 50.592 232.551 50.592V48.592C231.083 48.592 229.767 48.2487 228.583 47.5718L227.59 49.3082ZM232.551 50.592C234.347 50.592 236.007 50.1673 237.511 49.3082L236.518 47.5718C235.334 48.2487 234.018 48.592 232.551 48.592V50.592ZM237.517 49.3045C239.06 48.4075 240.275 47.1337 241.157 45.5095L239.4 44.5545C238.683 45.8743 237.721 46.8725 236.512 47.5755L237.517 49.3045ZM241.161 45.5016C242.05 43.8309 242.479 41.9207 242.479 39.8H240.479C240.479 41.6473 240.107 43.2251 239.396 44.5624L241.161 45.5016Z" fill="black" mask="url(#path-3-outside-2_7_11)"/>
</svg>
